<svg width="77" height="77" viewBox="0 0 77 77" fill="none" xmlns="http://www.w3.org/2000/svg">
<mask id="mask0" mask-type="alpha" maskUnits="userSpaceOnUse" x="0" y="0" width="77" height="77">
<path fill-rule="evenodd" clip-rule="evenodd" d="M38.8244 76.0284C59.8112 76.0284 76.8244 59.0152 76.8244 38.0284C76.8244 17.0416 59.8112 0.0284119 38.8244 0.0284119C17.8376 0.0284119 0.824402 17.0416 0.824402 38.0284C0.824402 59.0152 17.8376 76.0284 38.8244 76.0284Z" fill="#F19246"/>
</mask>
<g mask="url(#mask0)">
<path fill-rule="evenodd" clip-rule="evenodd" d="M38.8244 76.0284C59.8112 76.0284 76.8244 59.0152 76.8244 38.0284C76.8244 17.0416 59.8112 0.0284119 38.8244 0.0284119C17.8376 0.0284119 0.824402 17.0416 0.824402 38.0284C0.824402 59.0152 17.8376 76.0284 38.8244 76.0284Z" fill="#3A91F5"/>
<path fill-rule="evenodd" clip-rule="evenodd" d="M16.7433 32.8933L60.3919 -10.7554Z" fill="#00C0F3"/>
<path d="M16.7433 32.8933L60.3919 -10.7554" stroke="#8BDEFD" stroke-width="22.5319" stroke-linecap="round" stroke-linejoin="round"/>
<path d="M29.5811 61.1365L109.689 -18.9716" stroke="#57CBF5" stroke-width="41.3526" stroke-linecap="round" stroke-linejoin="round"/>
<path d="M63.5451 27.9358C62.3335 19.0829 56.0487 15.4368 50.5708 14.9764C46.4139 14.6261 42.478 15.9366 39.7129 18.3394C36.9482 15.9366 33.0109 14.6275 28.855 14.9764C23.377 15.4368 17.0922 19.0829 15.8811 27.9358C14.8695 35.3293 18.5286 42.8497 26.4617 49.6833C32.0738 54.5173 37.892 57.3705 38.1371 57.4896C38.6345 57.7314 39.1737 57.8525 39.7129 57.8525C40.2521 57.8525 40.7912 57.7318 41.2886 57.4896C41.5337 57.3705 47.3519 54.5173 52.964 49.6833C60.8976 42.8497 64.5566 35.3293 63.5451 27.9358Z" fill="#F55460"/>
<path d="M63.5453 27.9358C62.3337 19.0828 56.0489 15.4367 50.571 14.9764C46.9086 14.6678 43.4192 15.6492 40.7496 17.5301C43.6278 19.5701 45.9474 22.9148 46.6346 27.9358C47.6458 35.3293 43.9872 42.8496 36.0536 49.6833C34.4249 51.086 32.78 52.3206 31.258 53.3716C34.9809 55.9417 37.9638 57.405 38.1378 57.4896C38.6352 57.7313 39.1744 57.8524 39.7135 57.8524C40.2527 57.8524 40.7919 57.7313 41.2893 57.4896C41.5344 57.3704 47.3526 54.5173 52.9647 49.6833C60.8978 42.8496 64.5568 35.3293 63.5453 27.9358Z" fill="#D71D2A"/>
<path d="M32.9977 64.5674L39.7396 57.8255L46.4815 64.5674H32.9977Z" fill="#D62D2D"/>
<line x1="40.4037" y1="58.0554" x2="40.4037" y2="76.0284" stroke="#B3EFFF" stroke-width="1.1045"/>
</g>
</svg>
