<svg width="275" height="151" viewBox="0 0 275 151" fill="none" xmlns="http://www.w3.org/2000/svg">
<circle cx="50.0653" cy="50.695" r="42" transform="rotate(-12.21 50.0653 50.695)" fill="#6F55DD"/>
<rect x="23.2243" y="40.1328" width="48" height="32" rx="3" transform="rotate(-12.21 23.2243 40.1328)" fill="#44C0FF"/>
<rect x="25.602" y="41.6646" width="9" height="5" transform="rotate(-12.21 25.602 41.6646)" fill="white"/>
<path d="M25.179 39.7098C24.7118 37.5506 26.0834 35.4215 28.2426 34.9543L29.2199 34.7428C31.3791 34.2756 33.5082 35.6472 33.9754 37.8064V37.8064L25.179 39.7098V39.7098Z" fill="#3D309B"/>
<path d="M25.1277 48.9292L72.0419 38.7775L76.2718 58.3251C76.6222 59.9445 75.5935 61.5413 73.9742 61.8917L32.9242 70.7745C31.3049 71.1249 29.708 70.0962 29.3576 68.4768L25.1277 48.9292Z" fill="white"/>
<circle cx="49.6823" cy="51.2895" r="13.5" transform="rotate(-12.21 49.6823 51.2895)" fill="#6F54DF"/>
<circle cx="49.6823" cy="51.2895" r="10.5" transform="rotate(-12.21 49.6823 51.2895)" fill="#3E2F9B"/>
<circle cx="65.391" cy="35.9745" r="2.21538" transform="rotate(-12.21 65.391 35.9745)" fill="#3D309B"/>
<path d="M57.5556 47.7602C56.4729 44.786 54.024 43.9946 52.093 44.2456C50.6276 44.4357 49.3632 45.1842 48.5859 46.2233C47.4487 45.5985 45.9876 45.4403 44.5749 45.8724C42.7129 46.4422 40.8102 48.1753 41.0542 51.3309C41.2578 53.9663 43.088 56.2958 46.3464 58.0673C48.6515 59.3204 50.8795 59.8723 50.9733 59.8952C51.1636 59.9417 51.3593 59.9432 51.546 59.9028C51.7327 59.8624 51.9103 59.7802 52.0643 59.6591C52.1403 59.5995 53.9408 58.1759 55.5216 56.0819C57.7563 53.1217 58.4597 50.2441 57.5556 47.7602Z" fill="#F55460"/>
<path d="M57.5556 47.7602C56.473 44.786 54.024 43.9946 52.093 44.2455C50.802 44.4131 49.6675 45.0142 48.8842 45.8654C50.0334 46.3561 51.0871 47.3402 51.7011 49.027C52.6051 51.5109 51.9019 54.3886 49.6671 57.3487C49.2084 57.9564 48.7314 58.507 48.2832 58.9849C49.7646 59.5958 50.9069 59.8789 50.9735 59.8952C51.1638 59.9416 51.3596 59.9431 51.5462 59.9027C51.7329 59.8623 51.9105 59.78 52.0646 59.6591C52.1405 59.5995 53.941 58.1758 55.5218 56.0819C57.7564 53.1217 58.4597 50.244 57.5556 47.7602Z" fill="#D71D2A"/>
<path d="M55.8701 21.814C55.8701 21.814 56.7809 24.2709 59.6444 26.1156C62.508 27.9603 65.1216 27.7739 65.1216 27.7739C65.1216 27.7739 62.6647 28.6847 60.82 31.5482C58.9753 34.4118 59.1617 37.0254 59.1617 37.0254C59.1617 37.0254 58.2509 34.5686 55.3873 32.7238C52.5238 30.8791 49.9102 31.0655 49.9102 31.0655C49.9102 31.0655 52.367 30.1547 54.2118 27.2912C56.0565 24.4276 55.8701 21.814 55.8701 21.814Z" fill="white"/>
<path d="M45.057 72.2416C45.057 72.2416 45.5893 73.6775 47.2629 74.7557C48.9365 75.8339 50.4641 75.7249 50.4641 75.7249C50.4641 75.7249 49.0281 76.2572 47.95 77.9308C46.8718 79.6045 46.9808 81.132 46.9808 81.132C46.9808 81.132 46.4485 79.6961 44.7748 78.6179C43.1012 77.5397 41.5737 77.6487 41.5737 77.6487C41.5737 77.6487 43.0096 77.1164 44.0878 75.4428C45.166 73.7692 45.057 72.2416 45.057 72.2416Z" fill="white"/>
<mask id="mask0" mask-type="alpha" maskUnits="userSpaceOnUse" x="182" y="58" width="85" height="85">
<path fill-rule="evenodd" clip-rule="evenodd" d="M233.599 141.945C256.251 136.951 270.566 114.54 265.572 91.8881C260.578 69.236 238.167 54.9212 215.515 59.915C192.863 64.9089 178.548 87.3202 183.542 109.972C188.536 132.624 210.947 146.939 233.599 141.945Z" fill="#F19246"/>
</mask>
<g mask="url(#mask0)">
<path fill-rule="evenodd" clip-rule="evenodd" d="M233.599 141.945C256.251 136.951 270.566 114.54 265.572 91.8881C260.578 69.236 238.167 54.9212 215.515 59.915C192.863 64.9089 178.548 87.3202 183.542 109.972C188.536 132.624 210.947 146.939 233.599 141.945Z" fill="url(#paint0_linear)"/>
<g filter="url(#filter0_d)">
<path d="M237.626 78.7561C237.521 78.2783 237.419 77.8134 237.319 77.3614C237.033 75.8806 237.979 74.4533 239.455 74.1415C240.931 73.8296 242.379 74.7427 242.729 76.2093L247.081 95.8882L248.718 92.9272C249.824 90.9364 252.33 90.1944 254.342 91.2677L255.295 91.721L250.851 108.748C250.061 111.374 247.902 113.38 245.227 113.97L236.453 115.904C234.152 116.411 231.776 115.405 229.978 113.702C227.86 111.697 226.54 103.733 225.625 99.5843C224.985 96.6801 232.309 93.7279 229.604 94.1211L226.071 78.0941C225.744 76.6089 226.691 75.1272 228.177 74.7995L228.19 74.7967C229.676 74.4691 231.158 75.4153 231.486 76.9004L230.999 74.692C230.671 73.2069 231.618 71.7251 233.104 71.3975L233.169 71.3833C234.655 71.0556 236.135 71.9889 236.465 73.487L237.322 77.3743C237.325 77.3872 237.327 77.4001 237.327 77.4001L237.626 78.7561Z" fill="#FDD7BD"/>
<path d="M222.025 85.0553C221.91 83.6729 222.827 82.4285 224.182 82.1297L224.247 82.1155C225.731 81.7882 227.212 82.7341 227.539 84.2186L229.722 94.1195C229.577 94.1379 229.435 94.1692 229.306 94.1976C227.731 94.5448 226.134 95.5874 224.713 97.1865C224.697 97.1764 224.684 97.1792 224.669 97.1692L224.679 97.1534C223.646 92.4676 222.664 88.0142 222.092 85.4195C222.051 85.2933 222.038 85.1743 222.025 85.0553Z" fill="#FDD7BD"/>
<path d="M221.009 85.2792C221.022 85.3982 221.035 85.5173 221.06 85.6334C221.622 88.2438 222.601 92.6844 223.647 97.3673L223.637 97.3831C221.654 96.4937 219.808 96.2239 218.207 96.5768C218.078 96.6052 217.949 96.6337 217.823 96.6751L215.654 86.8387C215.327 85.3543 216.273 83.8733 217.757 83.5461L217.822 83.5319C219.177 83.233 220.533 83.9766 221.009 85.2792Z" fill="#FDD7BD"/>
<path d="M208.91 81.9092C208.582 80.4247 209.528 78.9438 211.013 78.6166C212.497 78.2893 213.978 79.2352 214.306 80.7197L217.823 96.6747C215.191 97.4445 223.417 97.4609 224.148 100.78C225.155 105.344 226.64 112.355 225.726 114.654C224.811 116.954 223.091 118.849 220.793 119.356L212.028 121.288C209.343 121.88 206.559 120.978 204.737 118.916L193.555 105.341L194.229 104.529C195.601 102.711 198.184 102.331 200.023 103.672L202.751 105.669L198.426 85.9936C198.128 84.5163 199.056 83.0798 200.525 82.7425C201.994 82.4052 203.453 83.3152 203.814 84.7653L202.96 80.8927C202.633 79.4082 203.579 77.9273 205.063 77.6001L205.128 77.5858C206.612 77.2586 208.093 78.2045 208.42 79.689L208.91 81.9092Z" fill="#FDD7BD"/>
<path d="M238.205 95.1801C236.371 90.2018 232.261 88.8911 229.026 89.3243C226.571 89.6526 224.456 90.9155 223.16 92.6622C221.25 91.6224 218.8 91.3667 216.434 92.1002C213.317 93.0674 210.139 95.9848 210.568 101.273C210.927 105.689 214.01 109.582 219.483 112.53C223.355 114.616 227.093 115.526 227.251 115.564C227.57 115.64 227.898 115.642 228.211 115.573C228.523 115.504 228.821 115.365 229.078 115.161C229.205 115.061 232.214 112.663 234.85 109.142C238.576 104.166 239.737 99.3377 238.205 95.1801Z" fill="#F55460"/>
<path d="M238.205 95.18C236.371 90.2017 232.261 88.891 229.026 89.3243C226.863 89.6136 224.965 90.6286 223.658 92.0604C225.587 92.8754 227.36 94.5182 228.4 97.3416C229.931 101.499 228.771 106.327 225.045 111.304C224.28 112.325 223.484 113.252 222.736 114.055C225.223 115.07 227.139 115.537 227.251 115.564C227.57 115.64 227.899 115.642 228.211 115.573C228.524 115.504 228.821 115.365 229.078 115.161C229.205 115.06 232.214 112.662 234.85 109.142C238.577 104.166 239.737 99.3376 238.205 95.18Z" fill="#D71D2A"/>
</g>
<path fill-rule="evenodd" clip-rule="evenodd" d="M233.599 141.945C256.251 136.951 270.566 114.54 265.572 91.8881C260.578 69.236 238.167 54.9212 215.515 59.915C192.863 64.9089 178.548 87.3202 183.542 109.972C188.536 132.624 210.947 146.939 233.599 141.945Z" fill="#00C0F3"/>
</g>
<path d="M242.083 121.459C240.777 121.33 238.986 120.007 239.278 117.096C239.57 114.185 241.571 113.228 242.878 113.357C243.153 113.382 243.568 113.536 244.053 113.785C243.755 113.324 243.545 112.928 243.488 112.671C243.338 111.992 243.466 111.068 244.054 110.276L243.183 104.211C241.861 95.0914 235.857 88.0349 228.021 85.0388C225.766 84.174 223.416 83.6613 221.057 83.4944C218.987 84.6379 217.07 86.0909 215.388 87.8237C209.54 93.849 207.048 102.778 209.68 111.597L212.219 120.104C214.698 128.392 226.391 131.936 231.477 130.815C234.805 130.081 239.878 126.337 242.617 121.427C242.401 121.45 242.22 121.465 242.083 121.459Z" fill="#015A9A"/>
<path d="M228.004 85.018C226.218 84.3319 224.385 83.8771 222.538 83.6341C222.578 83.6498 222.618 83.6654 222.644 83.672C230.484 86.6798 236.499 93.7336 237.819 102.841L239.095 111.639C240.331 120.201 231.212 128.334 226.127 129.455C225.072 129.687 223.726 129.714 222.24 129.551C225.705 130.885 229.236 131.297 231.486 130.801C234.814 130.067 239.887 126.323 242.626 121.413C242.412 121.447 242.22 121.465 242.08 121.447C240.762 121.32 238.983 119.995 239.275 117.084C239.568 114.173 241.569 113.217 242.875 113.346C243.151 113.371 243.566 113.525 244.051 113.774C243.752 113.312 243.542 112.916 243.485 112.659C243.336 111.98 243.464 111.056 244.051 110.264L243.181 104.199C241.859 95.0796 235.843 88.0258 228.004 85.018Z" fill="#13326F"/>
<path d="M224.878 105.007C225.721 108.833 223.302 112.63 219.459 113.478C215.627 114.322 211.826 111.909 210.98 108.071C210.136 104.245 212.556 100.448 216.399 99.6004C220.243 98.7531 224.032 101.169 224.878 105.007Z" fill="#B9E746"/>
<path d="M240.487 101.566C241.33 105.392 238.911 109.189 235.068 110.036C231.236 110.881 227.435 108.468 226.589 104.63C225.745 100.804 228.165 97.0067 232.008 96.1593C235.84 95.3145 239.641 97.7281 240.487 101.566Z" fill="#B9E746"/>
<path d="M218.871 99.4973C219.707 100.393 220.31 101.511 220.594 102.798C221.437 106.624 219.018 110.421 215.175 111.269C214.343 111.452 213.512 111.476 212.717 111.381C214.376 113.163 216.906 114.053 219.461 113.489C223.293 112.645 225.727 108.857 224.88 105.019C224.218 102.012 221.754 99.8677 218.871 99.4973Z" fill="#A0C83D"/>
<path d="M234.468 96.0587C235.305 96.9541 235.908 98.0726 236.191 99.3597C237.035 103.186 234.616 106.983 230.772 107.83C229.94 108.014 229.109 108.037 228.314 107.943C229.973 109.724 232.504 110.614 235.058 110.051C238.89 109.206 241.324 105.418 240.478 101.58C239.827 98.5706 237.352 96.4292 234.468 96.0587Z" fill="#A0C83D"/>
<path d="M235.617 115.316C236.329 118.545 233.67 121.868 229.686 122.746C225.701 123.624 221.889 121.716 221.18 118.499C220.47 115.281 223.488 113.585 227.472 112.707C231.457 111.828 234.905 112.087 235.617 115.316Z" fill="#FFCDBE"/>
<path d="M243.178 104.187L244.049 110.253C244.53 109.595 245.333 109 246.544 108.697C248.599 104.195 249.293 99.0358 248.237 93.8577C247.132 89.1811 244.72 85.1488 241.475 82.0238C234.608 79.415 227.153 80.1015 221.04 83.4737C223.399 83.6406 225.749 84.1533 228.004 85.0181C235.843 88.0259 241.859 95.0798 243.178 104.187Z" fill="#FFF2B2"/>
<path d="M219.34 75.7627C206.426 78.6096 198.082 91.3691 200.73 104.331C202.314 111.012 206.56 116.395 212.081 119.644L209.666 111.587C207.031 102.758 209.512 93.8307 215.362 87.8172C222.013 80.9768 232.278 78.5422 241.466 82.0379C235.705 76.4739 227.438 73.9776 219.34 75.7627Z" fill="#FFF2B2"/>
<path d="M219.34 75.7628C225.844 74.329 232.441 75.6598 237.784 79.1073C233.803 72.697 226.072 69.1747 218.267 70.8952C210.463 72.6158 204.929 79.0626 204.012 86.5528C207.374 81.2351 212.766 77.2121 219.34 75.7628Z" fill="#FFEA84"/>
<path d="M231.295 76.1456C233.486 76.7789 235.709 77.7736 237.784 79.1073C234.777 74.2736 229.636 71.0758 223.951 70.5378C226.823 71.7452 229.359 73.6644 231.295 76.1456Z" fill="#FFE046"/>
<path d="M241.475 82.0237C239.689 81.3376 237.856 80.8828 236.02 80.6373C236.049 80.6555 236.087 80.6595 236.113 80.666C239.355 83.7793 241.77 87.8234 242.875 92.4999C243.563 95.845 243.501 99.1838 242.832 102.337C243.116 103.624 243.147 104.047 244.049 110.253C244.53 109.595 245.333 109 246.544 108.697C248.599 104.195 249.293 99.0358 248.237 93.8576C247.186 89.4268 244.89 85.3075 241.475 82.0237Z" fill="#FFE565"/>
<path d="M228.283 75.4721C228.297 75.4812 228.309 75.4786 228.323 75.4877C230.16 76.2363 229.61 78.9831 227.628 78.9661C221.044 78.9207 214.631 81.5491 209.986 86.3399C204.138 92.3652 201.646 101.295 204.29 110.11L205.42 113.898C207.282 116.211 209.553 118.152 212.081 119.644L209.666 111.587C207.031 102.758 209.512 93.8308 215.362 87.8172C222.013 80.9769 232.278 78.5422 241.466 82.0379C237.887 78.5694 233.271 76.2496 228.283 75.4721Z" fill="#FFE565"/>
<path d="M217.512 104.594C217.009 104.705 216.52 104.384 216.412 103.892L216.076 102.371C215.965 101.868 216.288 101.38 216.78 101.271C217.272 101.163 217.772 101.482 217.881 101.973L218.216 103.494C218.327 103.997 218.005 104.486 217.512 104.594ZM220.287 104.584L221.128 103.269C221.402 102.841 221.276 102.268 220.847 101.994C220.418 101.721 219.844 101.847 219.57 102.276L218.729 103.59C218.455 104.018 218.581 104.592 219.01 104.865C219.224 105.002 219.479 105.044 219.714 104.992C219.948 104.941 220.15 104.798 220.287 104.584ZM223.214 105.374C223.103 104.871 222.605 104.563 222.113 104.672L220.59 105.008C220.086 105.119 219.778 105.616 219.886 106.108C219.997 106.611 220.495 106.918 220.987 106.81L222.51 106.474C223.002 106.365 223.325 105.877 223.214 105.374ZM222.487 109.436C222.762 109.007 222.635 108.434 222.206 108.16L220.891 107.322C220.462 107.048 219.888 107.175 219.614 107.603C219.339 108.032 219.466 108.605 219.895 108.879L221.21 109.717C221.425 109.854 221.68 109.896 221.914 109.844C222.148 109.793 222.35 109.65 222.487 109.436ZM219.805 110.702L219.47 109.181C219.359 108.678 218.861 108.37 218.369 108.479C217.877 108.587 217.557 109.087 217.665 109.579L218.001 111.1C218.111 111.603 218.609 111.91 219.101 111.802C219.594 111.693 219.913 111.193 219.805 110.702ZM216.312 110.797L217.153 109.483C217.427 109.055 217.3 108.481 216.871 108.208C216.442 107.934 215.868 108.061 215.594 108.489L214.753 109.803C214.479 110.232 214.606 110.805 215.034 111.079C215.249 111.216 215.504 111.258 215.738 111.206C215.961 111.157 216.175 111.012 216.312 110.797ZM215.995 106.965C215.884 106.462 215.387 106.155 214.894 106.263L213.371 106.599C212.867 106.71 212.559 107.208 212.667 107.699C212.778 108.202 213.276 108.51 213.768 108.401L215.292 108.065C215.784 107.957 216.106 107.468 215.995 106.965ZM216.256 105.472C216.53 105.044 216.404 104.47 215.975 104.197L214.659 103.358C214.231 103.085 213.656 103.211 213.382 103.64C213.108 104.068 213.234 104.642 213.663 104.915L214.979 105.754C215.193 105.891 215.448 105.933 215.683 105.881C215.914 105.818 216.119 105.687 216.256 105.472Z" fill="#E9F8C5"/>
<path d="M219.101 111.802C218.597 111.913 218.109 111.591 218 111.1L217.784 110.117C218.336 109.725 218.824 109.262 219.238 108.741C219.351 108.864 219.445 109.014 219.484 109.19L219.819 110.711C219.913 111.193 219.594 111.693 219.101 111.802ZM216.176 110.962C215.914 111.057 215.638 111.142 215.36 111.216C215.475 111.239 215.609 111.234 215.727 111.209C215.891 111.172 216.056 111.087 216.176 110.962ZM219.895 108.879L221.21 109.717C221.425 109.854 221.68 109.896 221.914 109.844C222.148 109.793 222.362 109.648 222.499 109.433C222.773 109.005 222.647 108.431 222.218 108.158L220.902 107.319C220.674 107.173 220.395 107.136 220.154 107.214C219.971 107.61 219.762 108 219.508 108.35C219.554 108.561 219.694 108.751 219.895 108.879ZM223.214 105.374C223.103 104.871 222.605 104.563 222.113 104.672L220.742 104.974C220.69 105.575 220.551 106.17 220.354 106.728C220.549 106.833 220.767 106.87 221.001 106.819L222.525 106.483C223.002 106.365 223.325 105.877 223.214 105.374ZM220.591 102.787C220.671 103.149 220.725 103.506 220.742 103.858L221.116 103.272C221.39 102.844 221.264 102.27 220.835 101.997C220.678 101.896 220.496 101.851 220.312 101.854C220.426 102.148 220.522 102.471 220.591 102.787Z" fill="#CBED74"/>
<path d="M233.11 101.156C232.606 101.267 232.117 100.945 232.009 100.454L231.673 98.9325C231.562 98.4293 231.885 97.9411 232.377 97.8326C232.869 97.7241 233.37 98.0432 233.478 98.5346L233.813 100.056C233.924 100.559 233.614 101.045 233.11 101.156ZM231.865 102.031C232.139 101.603 232.013 101.029 231.584 100.756L230.268 99.917C229.839 99.6435 229.265 99.7701 228.991 100.199C228.717 100.627 228.843 101.2 229.272 101.474L230.588 102.313C230.802 102.45 231.057 102.492 231.292 102.44C231.512 102.379 231.728 102.245 231.865 102.031ZM231.593 103.527C231.482 103.024 230.984 102.716 230.492 102.825L228.968 103.161C228.464 103.272 228.156 103.769 228.265 104.26C228.376 104.764 228.873 105.071 229.366 104.963L230.889 104.627C231.381 104.518 231.704 104.03 231.593 103.527ZM231.909 107.359L232.75 106.045C233.024 105.616 232.898 105.043 232.469 104.769C232.04 104.496 231.465 104.622 231.191 105.051L230.351 106.365C230.076 106.793 230.203 107.367 230.632 107.64C230.846 107.777 231.101 107.819 231.336 107.767C231.558 107.718 231.772 107.573 231.909 107.359ZM235.402 107.263L235.067 105.742C234.956 105.239 234.458 104.932 233.966 105.04C233.474 105.149 233.154 105.649 233.262 106.14L233.598 107.661C233.709 108.164 234.206 108.472 234.699 108.363C235.191 108.255 235.511 107.755 235.402 107.263ZM238.085 105.997C238.359 105.569 238.232 104.995 237.803 104.722L236.488 103.883C236.059 103.61 235.485 103.736 235.211 104.165C234.937 104.593 235.063 105.167 235.492 105.44L236.807 106.279C237.022 106.416 237.277 106.458 237.511 106.406C237.746 106.354 237.948 106.212 238.085 105.997ZM238.811 101.935C238.7 101.432 238.202 101.125 237.71 101.233L236.187 101.569C235.683 101.68 235.375 102.178 235.483 102.669C235.594 103.172 236.092 103.48 236.584 103.371L238.107 103.035C238.6 102.927 238.922 102.439 238.811 101.935ZM235.884 101.145L236.725 99.831C236.999 99.4024 236.873 98.8291 236.444 98.5556C236.015 98.2821 235.441 98.4086 235.167 98.8372L234.326 100.151C234.052 100.58 234.178 101.153 234.607 101.427C234.822 101.563 235.077 101.605 235.311 101.554C235.545 101.502 235.747 101.359 235.884 101.145Z" fill="#E9F8C5"/>
<path d="M234.699 108.363C234.195 108.474 233.706 108.153 233.598 107.661L233.381 106.678C233.934 106.287 234.421 105.823 234.835 105.303C234.948 105.425 235.043 105.576 235.081 105.751L235.417 107.273C235.511 107.755 235.203 108.252 234.699 108.363ZM231.773 107.524C231.512 107.618 231.235 107.704 230.957 107.777C231.073 107.801 231.207 107.796 231.324 107.77C231.5 107.731 231.653 107.648 231.773 107.524ZM238.811 101.935C238.7 101.432 238.202 101.125 237.71 101.233L236.339 101.536C236.287 102.136 236.148 102.731 235.952 103.29C236.147 103.394 236.364 103.432 236.598 103.38L238.122 103.044C238.6 102.927 238.922 102.439 238.811 101.935ZM236.2 99.3455C236.28 99.7082 236.334 100.064 236.351 100.417L236.725 99.831C236.999 99.4024 236.873 98.8291 236.444 98.5556C236.287 98.4553 236.105 98.4095 235.921 98.4132C236.035 98.7071 236.131 99.0295 236.2 99.3455ZM235.492 105.44L236.807 106.279C237.022 106.416 237.277 106.458 237.511 106.406C237.746 106.354 237.959 106.209 238.096 105.995C238.371 105.566 238.244 104.993 237.815 104.719L236.5 103.881C236.271 103.735 235.993 103.698 235.752 103.776C235.569 104.172 235.36 104.561 235.105 104.912C235.163 105.12 235.292 105.312 235.492 105.44Z" fill="#CBED74"/>
<path d="M231.827 117.967L225.347 119.396C224.843 119.507 224.354 119.185 224.246 118.694C224.138 118.202 224.457 117.703 224.95 117.594L231.43 116.165C231.934 116.054 232.422 116.376 232.531 116.867C232.639 117.359 232.331 117.856 231.827 117.967Z" fill="#FAA68E"/>
<path d="M256.426 118.297C257.557 117.63 258.626 115.677 257.137 113.159C255.66 110.638 253.43 110.614 252.299 111.28C252.059 111.419 251.748 111.733 251.412 112.163C251.489 111.618 251.513 111.171 251.457 110.914C251.173 109.627 249.64 108.026 246.781 108.657C243.922 109.287 243.204 111.384 243.488 112.671C243.547 112.94 243.757 113.335 244.053 113.785C243.557 113.539 243.142 113.385 242.878 113.357C241.571 113.228 239.558 114.187 239.278 117.096C238.998 120.004 240.777 121.33 242.083 121.459C242.359 121.484 242.798 121.412 243.329 121.258C242.936 121.651 242.656 121.995 242.553 122.251C242.02 123.46 242.319 125.652 244.999 126.828C247.691 128.001 249.497 126.72 250.03 125.51C250.135 125.266 250.209 124.82 250.222 124.265C250.476 124.749 250.719 125.125 250.92 125.314C251.911 126.187 254.089 126.591 256.038 124.394C257.987 122.198 257.325 120.086 256.333 119.213C256.135 119.036 255.733 118.83 255.211 118.638C255.756 118.543 256.187 118.435 256.426 118.297Z" fill="#FFE046"/>
<path d="M256.426 118.297C257.557 117.63 258.626 115.677 257.137 113.158C255.66 110.638 253.43 110.614 252.299 111.28C252.148 111.375 251.951 111.541 251.744 111.771C251.749 111.794 251.763 111.803 251.777 111.813C253.267 114.331 252.198 116.284 251.067 116.951C251.046 116.967 251.023 116.973 251.002 116.989C250.671 117.161 250.632 117.599 250.917 117.83C250.934 117.851 250.96 117.858 250.977 117.878C251.968 118.752 252.618 120.866 250.681 123.06C248.732 125.256 246.555 124.853 245.563 123.98C245.546 123.959 245.532 123.95 245.515 123.929C245.249 123.669 244.815 123.764 244.695 124.11C244.688 124.136 244.679 124.15 244.673 124.176C244.436 124.719 243.943 125.269 243.232 125.61C243.641 126.072 244.226 126.495 245.002 126.839C247.694 128.013 249.5 126.731 250.032 125.522C250.138 125.278 250.212 124.832 250.225 124.277C250.479 124.761 250.721 125.137 250.923 125.326C251.914 126.199 254.092 126.602 256.041 124.406C257.989 122.209 257.327 120.098 256.336 119.224C256.137 119.047 255.736 118.841 255.214 118.65C255.756 118.543 256.187 118.435 256.426 118.297Z" fill="#EEC707"/>
<path d="M252.513 116.264L250.826 116.636L251.758 115.179C252.032 114.75 251.906 114.177 251.477 113.903C251.048 113.63 250.473 113.756 250.199 114.185L249.267 115.642L248.896 113.957C248.785 113.454 248.287 113.146 247.795 113.255C247.303 113.363 246.983 113.863 247.091 114.355L247.462 116.04L246.004 115.11C245.575 114.836 245.001 114.963 244.727 115.391C244.453 115.82 244.579 116.393 245.008 116.667L246.466 117.597L244.779 117.969C244.275 118.08 243.967 118.577 244.075 119.069C244.186 119.572 244.684 119.879 245.176 119.771L246.864 119.399L245.931 120.856C245.657 121.284 245.784 121.858 246.213 122.131C246.427 122.268 246.682 122.31 246.916 122.258C247.151 122.206 247.365 122.061 247.502 121.847L248.434 120.39L248.805 122.075C248.916 122.578 249.414 122.885 249.906 122.777C250.41 122.666 250.718 122.168 250.61 121.677L250.238 119.992L251.697 120.922C251.911 121.059 252.166 121.101 252.401 121.049C252.635 120.997 252.849 120.852 252.986 120.638C253.26 120.209 253.134 119.636 252.705 119.362L251.246 118.432L252.91 118.066C253.414 117.955 253.722 117.457 253.614 116.966C253.515 116.46 253.017 116.153 252.513 116.264ZM248.649 119.079C248.573 118.96 248.477 118.859 248.348 118.777C248.22 118.695 248.087 118.65 247.948 118.632C247.981 118.502 247.985 118.354 247.954 118.214C247.923 118.073 247.857 117.94 247.773 117.836C247.891 117.761 247.993 117.665 248.075 117.537C248.157 117.408 248.202 117.276 248.22 117.136C248.35 117.169 248.499 117.173 248.639 117.142C248.78 117.111 248.913 117.045 249.017 116.961C249.092 117.079 249.189 117.181 249.317 117.263C249.446 117.345 249.579 117.389 249.718 117.408C249.685 117.537 249.681 117.686 249.712 117.826C249.743 117.966 249.809 118.099 249.893 118.203C249.775 118.278 249.673 118.374 249.591 118.503C249.508 118.632 249.464 118.764 249.445 118.903C249.315 118.87 249.167 118.866 249.026 118.897C248.886 118.928 248.765 118.992 248.649 119.079Z" fill="#EEC707"/>
<path d="M250.914 117.819C250.931 117.839 250.957 117.846 250.974 117.867C251.142 118.014 251.291 118.189 251.425 118.405L252.913 118.077C253.417 117.966 253.725 117.469 253.617 116.977C253.506 116.474 253.008 116.167 252.516 116.275L251.672 116.461C251.483 116.663 251.274 116.831 251.07 116.962C251.049 116.979 251.025 116.984 251.004 117.001C250.668 117.149 250.63 117.587 250.914 117.819Z" fill="#DDB907"/>
<path d="M252.681 119.368L251.58 118.666C251.889 119.285 252.043 120.097 251.811 120.995C252.001 121.076 252.19 121.095 252.377 121.054C252.612 121.002 252.825 120.857 252.962 120.643C253.237 120.214 253.11 119.641 252.681 119.368Z" fill="#DDB907"/>
<path d="M250.626 117.625C250.842 118.607 250.221 119.579 249.237 119.796C248.252 120.013 247.28 119.393 247.063 118.41C246.847 117.427 247.468 116.456 248.452 116.239C249.437 116.022 250.409 116.642 250.626 117.625Z" fill="#E7387F"/>
<path d="M247.911 73.2532C247.911 73.2532 248.711 75.3861 251.207 76.9801C253.703 78.5742 255.974 78.4033 255.974 78.4033C255.974 78.4033 253.842 79.2034 252.247 81.6991C250.653 84.1948 250.824 86.4664 250.824 86.4664C250.824 86.4664 250.024 84.3335 247.528 82.7394C245.033 81.1454 242.761 81.3163 242.761 81.3163C242.761 81.3163 244.894 80.5162 246.488 78.0205C248.082 75.5248 247.911 73.2532 247.911 73.2532Z" fill="white"/>
<path d="M198.778 113.781C198.778 113.781 199.258 115.061 200.755 116.017C202.252 116.974 203.615 116.871 203.615 116.871C203.615 116.871 202.336 117.351 201.379 118.848C200.423 120.346 200.525 121.708 200.525 121.708C200.525 121.708 200.046 120.429 198.548 119.473C197.051 118.516 195.688 118.619 195.688 118.619C195.688 118.619 196.968 118.139 197.924 116.641C198.88 115.144 198.778 113.781 198.778 113.781Z" fill="white"/>
<mask id="mask1" mask-type="alpha" maskUnits="userSpaceOnUse" x="122" y="27" width="85" height="85">
<path fill-rule="evenodd" clip-rule="evenodd" d="M153.285 110.113C175.587 116.491 198.836 103.581 205.214 81.2789C211.591 58.9769 198.681 35.7276 176.379 29.3503C154.077 22.9729 130.828 35.8825 124.451 58.1846C118.073 80.4866 130.983 103.736 153.285 110.113Z" fill="#F19246"/>
</mask>
<g mask="url(#mask1)">
<path fill-rule="evenodd" clip-rule="evenodd" d="M153.285 110.113C175.587 116.491 198.836 103.581 205.214 81.2789C211.591 58.9769 198.681 35.7276 176.379 29.3503C154.077 22.9729 130.828 35.8825 124.451 58.1846C118.073 80.4866 130.983 103.736 153.285 110.113Z" fill="#1A64F5"/>
<path d="M167.793 53.5031L170.899 54.3914L169.557 59.085L166.45 58.1968L167.793 53.5031Z" fill="#0045F5"/>
<path d="M169.346 53.9472L170.899 54.3913L169.557 59.0849L168.004 58.6408L169.346 53.9472Z" fill="#2246A2"/>
<path d="M148.614 68.2143C147.789 71.0987 146.974 73.986 146.149 76.8704C145.074 76.4758 144.084 75.9752 143.603 74.8483C143.208 73.92 143.327 72.9647 143.484 72.0311C143.615 71.2642 143.82 70.5075 144.023 69.7609C144.347 68.549 144.944 68.0782 146.225 67.9877C147.035 67.9258 147.835 68.0133 148.614 68.2143Z" fill="#F0D0AB"/>
<path d="M179.401 77.018C178.576 79.9024 177.741 82.7838 176.916 85.6682C178.038 85.902 179.143 86.0006 180.147 85.2984C180.973 84.7191 181.377 83.8453 181.737 82.9699C182.031 82.2494 182.257 81.4986 182.48 80.7578C182.845 79.5576 182.588 78.8425 181.549 78.0887C180.894 77.608 180.168 77.2591 179.401 77.018Z" fill="#E9C9A4"/>
<path d="M177.191 84.7063C174.762 93.2023 165.905 98.1202 157.409 95.6908C148.913 93.2613 143.995 84.4044 146.425 75.9084C148.762 67.7353 150.273 62.4484 151.373 58.6025C157.005 57.0929 178.158 63.1414 182.14 67.4004C181.04 71.2463 179.621 76.2102 177.191 84.7063Z" fill="#FAE0BD"/>
<path d="M177.191 84.7062C174.762 93.2022 165.905 98.1201 157.409 95.6907C156.423 95.4087 155.486 95.0403 154.602 94.5959C161.332 96.5204 169.91 91.9853 172.384 83.3315C174.721 75.1584 176.64 68.4493 177.739 64.6035C179.75 65.5571 181.314 66.5172 182.14 67.4003C181.04 71.2462 179.621 76.2101 177.191 84.7062Z" fill="#F0D0AB"/>
<path d="M150.412 58.3276L155.494 58.7408L149.585 68.4921L148.624 68.2172L150.412 58.3276Z" fill="#AD5A38"/>
<path d="M183.101 67.6754L178.569 65.3392L178.429 76.7401L179.391 77.0151L183.101 67.6754Z" fill="#AD5A38"/>
<path d="M158.374 81.406C158.374 81.406 158.648 83.5646 160.708 84.1537C162.768 84.7428 164.142 83.0556 164.142 83.0556" stroke="#E25520" stroke-width="2" stroke-linecap="round"/>
<ellipse cx="156.933" cy="73.7135" rx="1.5" ry="2" transform="rotate(15.958 156.933 73.7135)" fill="#484346"/>
<ellipse cx="169.432" cy="77.2876" rx="1.5" ry="2" transform="rotate(15.958 169.432 77.2876)" fill="#484346"/>
<path d="M177.499 40.0712C175.598 39.5277 173.613 40.0694 172.122 41.3351C171.08 42.1742 170.282 43.3882 169.871 44.8239L169.504 46.1059L179.935 49.0886C183.134 50.0033 186.551 47.8741 187.563 44.3359L187.93 43.0539L177.499 40.0712Z" fill="#D71D2A"/>
<path d="M179.799 38.6487C177.637 38.0306 175.419 38.5059 173.786 39.7306C172.642 40.5406 171.786 41.7382 171.375 43.174L171.009 44.4559L182.871 47.848C186.509 48.8882 191.952 47.0408 193.252 42.4957L179.799 38.6487Z" fill="#F55460"/>
<path d="M167.655 54.5039L170.761 55.3921L169.419 60.0858L166.313 59.1975L167.655 54.5039Z" fill="#0045F5"/>
<path d="M169.208 54.9479L170.761 55.392L169.419 60.0857L167.866 59.6416L169.208 54.9479Z" fill="#2246A2"/>
<path d="M185.489 70.1637L184.042 75.2247L145.897 64.3172L147.344 59.2562C150.315 48.8653 161.335 42.7298 171.843 45.7344C182.35 48.7389 188.46 59.7729 185.489 70.1637Z" fill="#9EF569"/>
<path d="M181.587 83.8836L178.287 95.4247L156.859 97.6142L139.828 84.4274L143.128 72.8863L159.603 88.0192L181.587 83.8836Z" fill="#9EF569"/>
<path d="M185.489 70.1637L184.042 75.2247L164.969 69.771L171.843 45.7344C182.35 48.7389 188.46 59.7729 185.489 70.1637Z" fill="#49B125"/>
<path d="M159.614 87.98L181.587 83.8836L178.287 95.4247L156.859 97.6142L159.614 87.98Z" fill="#49B125"/>
<path d="M170.715 49.6784L144.653 56.6421L142.07 65.6769L163.237 75.8299L186.572 78.4023L189.155 69.3676L170.715 49.6784Z" fill="#6FDF47"/>
<path d="M189.155 69.3676L186.572 78.4023L163.237 75.8299L170.715 49.6784L189.155 69.3676Z" fill="#49B125"/>
<path d="M189.155 69.3676L186.572 78.4023L163.237 75.8299L170.715 49.6784L189.155 69.3676Z" fill="#36CC29"/>
<path d="M167.881 53.1139L171.304 54.0928L166.374 71.3347L162.951 70.3559L167.881 53.1139Z" fill="#1A64F5"/>
<path d="M173.135 60.6393L176.559 61.6182L173.6 71.9634L170.177 70.9845L173.135 60.6393Z" fill="#2246A2"/>
<path d="M178.087 69.2241L181.51 70.203L180.524 73.6514L177.101 72.6725L178.087 69.2241Z" fill="#2246A2"/>
<path d="M159.442 56.7238L162.866 57.7027L159.907 68.0478L156.484 67.0689L159.442 56.7238Z" fill="#1A64F5"/>
<path d="M150.701 61.3931L154.124 62.372L153.138 65.8204L149.715 64.8415L150.701 61.3931Z" fill="#1A64F5"/>
<path d="M169.593 53.6034L171.304 54.0928L166.374 71.3348L164.662 70.8453L169.593 53.6034Z" fill="#2246A2"/>
<path d="M195.351 54.5369C195.351 54.5369 195.16 55.9263 196.045 57.5204C196.93 59.1144 198.211 59.6868 198.211 59.6868C198.211 59.6868 196.821 59.4958 195.227 60.3809C193.633 61.2661 193.061 62.5465 193.061 62.5465C193.061 62.5465 193.252 61.157 192.367 59.563C191.482 57.9689 190.201 57.3965 190.201 57.3965C190.201 57.3965 191.591 57.5875 193.185 56.7024C194.779 55.8173 195.351 54.5369 195.351 54.5369Z" fill="white"/>
<path d="M134.784 66.3399C134.784 66.3399 134.501 68.4005 135.814 70.7646C137.126 73.1287 139.025 73.9776 139.025 73.9776C139.025 73.9776 136.964 73.6943 134.6 75.007C132.236 76.3197 131.387 78.2186 131.387 78.2186C131.387 78.2186 131.671 76.1579 130.358 73.7939C129.045 71.4298 127.146 70.5809 127.146 70.5809C127.146 70.5809 129.207 70.8641 131.571 69.5515C133.935 68.2388 134.784 66.3399 134.784 66.3399Z" fill="white"/>
</g>
<defs>
<filter id="filter0_d" x="190.555" y="71.3178" width="67.7402" height="56.149" filterUnits="userSpaceOnUse" color-interpolation-filters="sRGB">
<feFlood flood-opacity="0" result="BackgroundImageFix"/>
<feColorMatrix in="SourceAlpha" type="matrix" values="0 0 0 0 0 0 0 0 0 0 0 0 0 0 0 0 0 0 127 0"/>
<feOffset dy="3"/>
<feGaussianBlur stdDeviation="1.5"/>
<feColorMatrix type="matrix" values="0 0 0 0 0 0 0 0 0 0 0 0 0 0 0 0 0 0 0.25 0"/>
<feBlend mode="normal" in2="BackgroundImageFix" result="effect1_dropShadow"/>
<feBlend mode="normal" in="SourceGraphic" in2="effect1_dropShadow" result="shape"/>
</filter>
<linearGradient id="paint0_linear" x1="215.515" y1="59.915" x2="233.599" y2="141.945" gradientUnits="userSpaceOnUse">
<stop stop-color="#3CD4F4"/>
<stop offset="1" stop-color="#1E80D3"/>
</linearGradient>
</defs>
</svg>
