<svg width="84" height="84" viewBox="0 0 84 84" fill="none" xmlns="http://www.w3.org/2000/svg">
<circle cx="42" cy="42" r="42" fill="#F55460"/>
<path d="M36.5763 55.4023C36.4181 56.1654 36.3213 56.9373 36.0839 57.6826C35.0552 60.9211 32.7779 62.7578 29.595 63.5652C27.4145 64.1153 25.19 64.0621 22.9654 63.9467C22.1038 63.9024 21.2421 63.8491 20.398 63.6451C19.8353 63.512 19.3429 63.2635 19 62.7755C19 62.4827 19 62.1811 19 61.8883C19.3077 61.276 19.4748 60.5928 19.8617 60.0161C20.2398 60.1669 20.6442 60.1048 21.0311 60.1226C23.1413 60.2468 25.2515 60.3444 27.3441 59.9363C29.5071 59.5104 31.4151 58.6054 32.8747 56.884C33.0505 56.68 33.2791 56.5025 33.3055 56.2008L33.3143 56.2097C33.4022 56.192 33.411 56.1299 33.4198 56.05L33.4286 56.0411C33.4462 56.0145 33.4726 55.9879 33.4901 55.9613C34.1056 55.1982 34.4309 54.3198 34.5716 53.3616C34.853 53.6366 35.1431 53.9117 35.4245 54.1779C35.4685 54.2488 35.5124 54.311 35.6091 54.2666L35.6004 54.2755C35.8114 54.7457 36.295 54.9764 36.5763 55.4023Z" fill="#FD7E83"/>
<path d="M64.0089 24.5342C63.7979 25.1731 63.7979 25.8563 63.6572 26.504C63.3583 27.9413 63.0329 29.3699 62.5142 30.7451C61.8459 30.0885 61.1777 29.4231 60.5095 28.7665C60.5095 28.7399 60.5007 28.7221 60.4919 28.6955C60.9843 27.1517 61.4327 25.5989 61.6701 24.0019C61.8635 22.6976 62.1009 21.3933 61.9075 20.0624C62.1185 20.0801 62.3383 20.0801 62.5493 20.1156C63.5165 20.2753 63.7363 20.5238 63.9122 21.5707C63.9298 21.6772 63.8594 21.8103 64.0089 21.8724C64.0089 22.7597 64.0089 23.647 64.0089 24.5342Z" fill="#5A5A5A"/>
<path d="M60.4919 28.6953C60.5007 28.7219 60.5007 28.7397 60.5095 28.7663C60.4831 28.8195 60.4479 28.8728 60.4304 28.926C59.8237 30.7449 59.0763 32.5017 58.2234 34.2141C57.5288 35.6072 56.7551 36.9558 55.9286 38.2867C54.2316 41.0106 52.2797 43.5394 50.0991 45.8729C49.1847 46.8489 48.2439 47.7983 47.2503 48.6944C46.0897 49.7414 44.8763 50.7351 43.6629 51.72C43.2057 52.0926 42.6254 52.3233 42.2913 52.8468C42.177 52.7936 42.0979 52.6516 41.9396 52.6605C41.9572 52.554 41.9396 52.4653 41.8605 52.3854C41.0603 51.5958 40.3218 50.7529 39.4865 50.0076C38.8358 49.3332 38.1852 48.65 37.5433 47.9757C37.6488 47.8515 37.7543 47.7273 37.8599 47.6119C38.8798 46.5738 39.9085 45.5446 40.9285 44.5154C41.2802 44.1604 41.3241 43.7612 41.0516 43.4595C40.7702 43.1578 40.313 43.1845 39.9701 43.5394C39.2667 44.2403 38.5545 44.9501 37.8686 45.6688C37.4378 46.1124 36.963 46.5028 36.5937 47.0086C35.2045 45.6067 33.8241 44.2137 32.4348 42.8207C32.3117 42.6965 32.215 42.5367 32.0216 42.5101C31.5996 41.96 31.1248 41.4454 30.6412 40.9397C30.3862 40.6735 30.0872 40.4605 29.9026 40.1411C30.9401 38.473 32.1799 36.9736 33.446 35.4918C35.9079 32.6259 38.66 30.0795 41.6846 27.8258C41.7638 27.7725 41.8868 27.7371 41.8165 27.5951C42.5639 27.2579 43.1881 26.7078 43.874 26.2731C46.67 24.463 49.5891 22.9103 52.7281 21.8012C52.9743 21.7125 53.2205 21.6238 53.4667 21.535C53.5634 21.6504 53.6425 21.7657 53.748 21.8722C55.1988 23.3539 56.6496 24.8446 58.1091 26.3174C58.8917 27.0982 59.6918 27.8968 60.4919 28.6953ZM43.6014 40.2387C45.017 41.8358 46.8107 42.5722 48.8945 42.3327C52.1478 41.96 54.6185 39.2805 54.6536 35.8201C54.68 33.7882 53.8271 32.1024 52.2269 30.8425C51.7697 30.4787 51.2861 30.1416 50.697 30.0173C50.2837 29.7867 49.8265 29.7245 49.3605 29.6536C47.391 29.3696 45.6852 29.9641 44.252 31.295C42.5727 32.8566 41.8781 34.8086 42.1946 37.1066C42.3616 38.2956 42.8452 39.3337 43.6014 40.2387Z" fill="#EBEBEB"/>
<path d="M33.2965 56.1919C33.2701 56.4935 33.0415 56.671 32.8657 56.8839C31.4061 58.6052 29.4981 59.5103 27.3351 59.9361C25.2425 60.3443 23.1323 60.2467 21.0221 60.1225C20.6264 60.0959 20.2307 60.1668 19.8527 60.016C20.3363 58.8182 20.8814 57.6381 21.1364 56.3604C21.3826 55.1538 21.4705 53.9382 21.2946 52.7138C21.0484 51.0723 21.7606 49.9189 23.0444 49.0405C24.6446 47.9402 26.4471 47.4611 28.3463 47.2659C28.4166 47.257 28.4957 47.2482 28.5661 47.2482C29.3574 47.9846 30.1224 48.7565 30.8434 49.5551C29.9729 49.6349 29.1464 49.8479 28.399 50.3181C27.8099 50.6908 27.3615 51.1965 27.467 51.9418C27.6077 52.9888 27.4406 53.9648 27.0274 54.9142C26.834 55.3578 26.6229 55.8015 26.4559 56.254C26.28 56.7242 26.3943 56.9106 26.8427 57.1146C27.2472 57.2921 27.6692 57.2655 28.0913 57.3098C29.0585 57.4163 30.0081 57.3897 30.9665 57.23C31.8369 57.088 32.5931 56.6976 33.2965 56.1919Z" fill="#FF8C92"/>
<path d="M30.8434 49.5463C30.1136 48.7389 29.3574 47.9758 28.5661 47.2394C28.2759 46.8756 27.9418 46.5562 27.8451 46.0593C27.722 45.4205 27.9067 44.9325 28.4606 44.6042C29.6388 43.9033 30.8258 43.2023 32.004 42.5103C32.1974 42.528 32.2941 42.6966 32.4172 42.8208C33.8065 44.2138 35.1869 45.6157 36.5761 47.0087C36.8663 47.3636 37.1916 47.683 37.5345 47.9847C38.1852 48.659 38.8358 49.3422 39.4777 50.0166C38.7479 51.3031 38.0269 52.5897 37.2971 53.8851C37.1125 54.2045 36.8135 54.3553 36.4618 54.3553C36.1717 54.3553 35.8903 54.311 35.6001 54.2843L35.6089 54.2755C35.5738 54.1867 35.5034 54.1779 35.4243 54.1867C35.1429 53.9117 34.8528 53.6366 34.5714 53.3705C33.3317 52.0839 32.0831 50.8151 30.8434 49.5463Z" fill="#838383"/>
<path d="M27.8627 38.118C27.3879 37.6388 26.8867 37.1863 26.4383 36.6806C25.6206 35.7578 25.5151 34.6576 26.1042 33.5663C26.7021 32.4394 27.6516 31.6143 28.5397 30.7359C30.1487 29.1477 31.9248 27.8256 34.1054 27.1513C35.5825 26.6899 37.0773 26.548 38.6072 26.823C38.1851 27.3376 37.6048 27.6748 37.1037 28.0918C35.2836 29.6179 33.5778 31.2594 31.9688 33.0162C30.4916 34.6399 29.1464 36.3523 27.8627 38.118Z" fill="#01BCD8"/>
<path d="M27.8627 38.1183C29.1376 36.3438 30.4916 34.6314 31.9688 33.0165C33.5778 31.2597 35.2836 29.6183 37.1037 28.0922C37.6048 27.6751 38.1764 27.338 38.6072 26.8234C39.5304 26.8677 40.4009 27.1428 41.2713 27.4178C41.4472 27.4711 41.6318 27.5243 41.8165 27.5775C41.878 27.7195 41.7549 27.7461 41.6846 27.8082C38.6599 30.0619 35.8991 32.5995 33.446 35.4743C32.1798 36.956 30.9313 38.4644 29.9025 40.1236C29.7443 40.1413 29.6739 40.0082 29.5948 39.9195C29.0057 39.325 28.4342 38.7217 27.8627 38.1183Z" fill="#0198B3"/>
<path d="M60.4919 28.6953C59.6918 27.8968 58.8828 27.0983 58.0915 26.2908C56.6319 24.8091 55.1812 23.3274 53.7304 21.8456C53.6249 21.7391 53.5458 21.6238 53.449 21.5085C56.0077 20.6301 58.6103 19.9912 61.336 20.0001C61.5206 20.0001 61.714 20.0267 61.8987 20.0445C62.1009 21.3754 61.8547 22.6796 61.6613 23.9839C61.4327 25.5988 60.9843 27.1604 60.4919 28.6953Z" fill="#838383"/>
<path d="M42.2825 52.838C42.6166 52.3145 43.1969 52.0838 43.6541 51.7111C44.8763 50.7263 46.0809 49.7414 47.2415 48.6856C48.235 47.7894 49.1758 46.84 50.0903 45.864C52.2708 43.5216 54.2228 40.9929 55.9197 38.2779C56.7462 36.9558 57.5288 35.6072 58.2146 34.2053C59.0587 32.4929 59.8148 30.7361 60.4215 28.9172C60.4391 28.8639 60.4743 28.8107 60.5007 28.7574C61.1689 29.414 61.8371 30.0795 62.5054 30.7361C62.1537 31.9694 61.6701 33.1494 61.1601 34.3206C59.894 37.2309 58.3025 39.9459 56.5088 42.5545C56.0604 43.149 55.5768 43.7346 55.1987 44.3823C55.1548 44.4178 55.102 44.4533 55.0669 44.4976C53.3875 46.6448 51.5586 48.6501 49.5627 50.4956C47.8921 52.0394 46.1424 53.4768 44.2784 54.79C43.8563 54.5859 43.6101 54.1866 43.2848 53.8761C42.9419 53.5478 42.6254 53.184 42.2825 52.838Z" fill="#CDCDCD"/>
<path d="M44.2872 54.7901C46.1424 53.4858 47.9009 52.0396 49.5715 50.4957C51.5674 48.6502 53.3963 46.6361 55.0757 44.4978C55.1108 44.4534 55.1636 44.4179 55.2075 44.3824C55.3218 45.2431 55.3218 46.1038 55.2251 46.9733C55.0581 48.6059 54.5217 50.0965 53.6864 51.4895C52.7017 53.1132 51.374 54.4441 50.0463 55.775C49.1055 56.7244 48.068 57.4342 46.6436 57.2745C45.9226 56.5381 45.1928 55.8016 44.4718 55.0652C44.4015 54.9942 44.3048 54.9232 44.2872 54.7901Z" fill="#01BCD8"/>
<path d="M46.6524 57.2833C48.0768 57.4519 49.1143 56.7332 50.0551 55.7838C51.3828 54.4529 52.7105 53.122 53.6953 51.4983C54.5306 50.1053 55.0581 48.6147 55.234 46.9821C55.3219 46.1126 55.3219 45.2519 55.2164 44.3913C55.6032 43.7435 56.078 43.1668 56.5265 42.5635C58.2146 47.2571 57.6167 51.5249 54.2316 55.2958C53.3172 56.3162 52.4379 57.3632 51.3476 58.1972C49.8089 59.3684 48.5428 59.2619 47.2063 57.8689C47.0129 57.6737 46.837 57.4785 46.6524 57.2833Z" fill="#0198B3"/>
<path d="M35.5914 54.2664C35.8815 54.293 36.1629 54.3374 36.453 54.3374C36.8047 54.3374 37.1037 54.1866 37.2883 53.8672C38.0181 52.5806 38.7479 51.2941 39.4689 49.9987C40.313 50.744 41.0515 51.5869 41.8429 52.3765C41.922 52.4564 41.9396 52.5451 41.922 52.6516C41.2538 53.805 40.5943 54.9585 39.9349 56.112C39.4249 56.9992 38.4753 57.1678 37.6928 56.4935C37.2971 56.1474 36.9366 55.757 36.5586 55.3933C36.2948 54.9762 35.8112 54.7456 35.5914 54.2664Z" fill="#5A5A5A"/>
<path d="M30.8434 49.5461C32.0831 50.8149 33.3317 52.0837 34.5714 53.3525C34.4395 54.3108 34.1054 55.1981 33.4899 55.9522C33.4723 55.9789 33.446 56.0055 33.4284 56.0321L33.4196 56.041C33.3493 56.0676 33.3141 56.1208 33.3141 56.2007L33.3053 56.1918C32.5931 56.6975 31.8369 57.0879 30.9665 57.2299C30.0081 57.3896 29.0497 57.4162 28.0913 57.3098C27.6693 57.2654 27.2472 57.292 26.8428 57.1146C26.3855 56.9105 26.28 56.7242 26.4559 56.2539C26.6229 55.8014 26.834 55.3578 27.0274 54.9141C27.4407 53.9648 27.6077 52.9888 27.467 51.9418C27.3703 51.1965 27.8099 50.6907 28.399 50.3181C29.1464 49.8389 29.9729 49.626 30.8434 49.5461Z" fill="#FED844"/>
<path d="M35.4243 54.1688C35.5035 54.1688 35.5738 54.1777 35.609 54.2576C35.5122 54.3019 35.4683 54.2398 35.4243 54.1688Z" fill="#5A5A5A"/>
<path d="M33.3141 56.2007C33.3141 56.1209 33.3405 56.0676 33.4196 56.041C33.4108 56.1209 33.3932 56.183 33.3141 56.2007Z" fill="#FE626B"/>
<path d="M33.4283 56.0322C33.4459 56.0056 33.4723 55.979 33.4899 55.9524C33.4723 55.979 33.4459 56.0056 33.4283 56.0322Z" fill="#FE626B"/>
<path d="M43.6014 40.2387C42.8452 39.3337 42.3617 38.2956 42.1946 37.1155C41.8781 34.8175 42.5727 32.8655 44.2521 31.3039C45.6852 29.973 47.391 29.3785 49.3605 29.6625C49.8265 29.7246 50.2837 29.7956 50.697 30.0262C50.7497 30.2658 50.9168 30.4433 51.0311 30.6473C51.8312 31.9782 52.0423 33.4422 51.7961 34.9506C51.5059 36.7695 50.5739 38.2246 49.0792 39.2716C47.7779 40.1855 46.3271 40.5759 44.7181 40.3718C44.3664 40.3097 43.9971 40.0702 43.6014 40.2387Z" fill="#A0E6F0"/>
<path d="M43.6014 40.2388C43.997 40.0702 44.3575 40.3009 44.7356 40.3541C46.3359 40.5582 47.7866 40.1678 49.0967 39.2539C50.5915 38.2069 51.5235 36.7518 51.8136 34.9329C52.0598 33.4245 51.8488 31.9694 51.0487 30.6296C50.9256 30.4256 50.7673 30.2481 50.7146 30.0085C51.3037 30.1328 51.7873 30.4699 52.2445 30.8337C53.8447 32.0936 54.6976 33.7794 54.6712 35.8113C54.636 39.2805 52.1653 41.9512 48.9121 42.3239C46.8107 42.5812 45.017 41.8359 43.6014 40.2388Z" fill="#5FD8E8"/>
<path d="M37.5257 47.9667C37.1828 47.6651 36.8575 47.3456 36.5673 46.9907C36.9366 46.4939 37.4114 46.0946 37.8422 45.651C38.5369 44.9323 39.2403 44.2313 39.9437 43.5215C40.2954 43.1755 40.7526 43.1489 41.0252 43.4417C41.2977 43.7345 41.2538 44.1337 40.9021 44.4975C39.8821 45.5356 38.8534 46.5648 37.8335 47.5941C37.7367 47.7183 37.64 47.8514 37.5257 47.9667Z" fill="#CDCDCD"/>
<path d="M63.5586 56C63.5586 56 63.8709 58.1862 65.901 60.2163C67.9311 62.2464 70.1173 62.5587 70.1173 62.5587C70.1173 62.5587 67.9311 62.871 65.901 64.9011C63.8709 66.9312 63.5586 69.1174 63.5586 69.1174C63.5586 69.1174 63.2463 66.9312 61.2162 64.9011C59.1861 62.871 56.9999 62.5587 56.9999 62.5587C56.9999 62.5587 59.1861 62.2464 61.2162 60.2163C63.2463 58.1862 63.5586 56 63.5586 56Z" fill="white"/>
<path d="M12.3025 28C12.3025 28 12.5074 29.4341 13.8391 30.7658C15.1708 32.0975 16.6049 32.3024 16.6049 32.3024C16.6049 32.3024 15.1708 32.5073 13.8391 33.839C12.5074 35.1707 12.3025 36.6048 12.3025 36.6048C12.3025 36.6048 12.0976 35.1707 10.7659 33.839C9.43421 32.5073 8.00008 32.3024 8.00008 32.3024C8.00008 32.3024 9.43421 32.0975 10.7659 30.7658C12.0976 29.4341 12.3025 28 12.3025 28Z" fill="white"/>
</svg>
