<svg width="290" height="171" viewBox="0 0 290 171" fill="none" xmlns="http://www.w3.org/2000/svg">
<mask id="mask0" mask-type="alpha" maskUnits="userSpaceOnUse" x="9" y="47" width="85" height="85">
<path fill-rule="evenodd" clip-rule="evenodd" d="M63.4698 129.744C85.7724 123.369 98.684 100.121 92.3086 77.8182C85.9332 55.5156 62.6851 42.604 40.3825 48.9794C18.0798 55.3548 5.16827 78.6029 11.5437 100.906C17.919 123.208 41.1672 136.12 63.4698 129.744Z" fill="#F19246"/>
</mask>
<g mask="url(#mask0)">
<path fill-rule="evenodd" clip-rule="evenodd" d="M63.4698 129.744C85.7724 123.369 98.684 100.121 92.3086 77.8182C85.9332 55.5156 62.6851 42.604 40.3825 48.9794C18.0798 55.3548 5.16827 78.6029 11.5437 100.906C17.919 123.208 41.1672 136.12 63.4698 129.744Z" fill="#C385F8"/>
</g>
<path d="M24.755 99.8232C24.7765 99.8986 24.795 99.9633 24.8166 100.039C25.3028 100.214 25.7749 100.383 26.2611 100.558C27.5088 100.843 28.7601 100.975 30.0397 100.959C31.7751 100.847 33.4816 100.511 35.1419 100.013C35.9359 99.0399 36.8943 98.2298 37.8387 97.4119L37.8342 97.3549C36.8196 97.6799 35.8121 97.6998 34.785 97.4456C33.3879 97.2155 32.2251 96.5687 31.2858 95.5084C30.5244 94.7818 30.0198 93.9236 29.7443 92.9183C29.0435 91.0438 28.506 89.1225 27.9795 87.1981C27.6854 86.1282 27.6963 86.1251 28.6957 85.6645C29.1629 85.4028 29.616 85.1333 30.0832 84.8716C30.6071 84.3138 31.193 83.8083 31.6798 83.2029C32.4255 82.267 32.9507 81.2193 33.4838 80.1577C33.5685 79.8771 33.6532 79.5964 33.7519 79.3234C33.8177 79.1414 33.95 79.0686 34.1473 79.1404C34.7547 79.3281 35.3481 79.5082 35.9525 79.6851C37.1756 79.8834 38.3861 80.1202 39.6219 80.1982C41.262 80.2889 42.9129 80.3765 44.5553 80.1868C44.278 79.2169 43.9899 78.2502 43.7235 77.2772C43.1169 75.0727 42.4558 72.8837 41.4119 70.8391C40.7098 69.4545 39.8237 68.2507 38.3594 67.5386C37.729 67.2292 37.0495 67.2836 36.4032 67.0837C36.2713 66.9932 36.1529 67.0736 36.0331 67.1079C34.2298 67.6001 32.4682 68.1969 30.7575 68.9307C30.211 69.2035 29.6568 69.4901 29.1103 69.7629C27.3693 70.7618 25.8113 71.9882 24.5353 73.5419C24.2386 73.9881 23.9281 74.4266 23.6314 74.8727C22.7142 76.5687 22.1962 78.3836 22.0744 80.3068C22.0651 80.8924 22.0697 81.4855 22.0603 82.071C22.2262 83.9703 22.6597 85.8163 23.202 87.6313C23.37 88.1777 23.5738 88.7256 23.6329 89.3032C23.9046 90.0066 24.1079 90.7178 24.2272 91.4647C24.412 92.1112 24.6186 92.7516 24.7599 93.4106C25.0962 94.9581 25.4574 96.5101 25.2929 98.1191C25.2508 98.7139 25.2041 99.3334 24.755 99.8232Z" fill="#E67E3D"/>
<path d="M82.8315 91.964C82.7792 91.7808 82.7299 91.6084 82.6775 91.4252C82.3007 91.055 81.8825 91.0346 81.3846 91.1886C80.1086 91.5884 78.811 91.9127 77.535 92.3124C77.0698 92.457 76.9177 92.3373 76.8132 91.8893C76.6625 91.2796 76.5196 90.656 76.2382 90.0837C75.4233 88.4282 74.0591 87.4893 72.277 87.0662C71.9085 87.055 71.523 87.0253 71.1576 87.0248C70.1688 87.0278 69.235 87.388 68.2859 87.6126C67.9949 87.7075 67.7148 87.7992 67.4269 87.9048C67.8288 88.1979 68.3206 88.0224 68.7679 88.1859C70.2605 88.75 71.0689 89.9294 71.5627 91.3269C72.0271 92.6629 72.3638 94.0471 72.752 95.4049C74.3126 94.9704 75.8841 94.5328 77.4478 94.1091C78.9151 93.678 80.3793 93.2362 81.8559 92.8374C82.3491 92.7081 82.6934 92.4698 82.8315 91.964Z" fill="#5F4EAF"/>
<path d="M34.057 111.385C35.0094 112.78 36.1427 113.983 37.6718 114.84C37.5021 114.946 37.3728 115.03 37.2544 115.11C36.1651 116.04 35.4749 117.169 35.2549 118.584C35.2169 118.863 35.2145 119.144 35.2916 119.413C35.461 120.006 35.8491 120.21 36.4451 120.028C36.8372 119.916 37.1535 119.662 37.4279 119.385C38.3524 118.457 38.9555 117.352 39.0741 116.036C38.9284 115.32 38.4433 114.736 38.3629 114.001C37.8129 112.118 37.2599 110.225 36.7099 108.342C36.6544 108.148 36.6471 107.999 36.8294 107.853C37.1457 107.6 37.4419 107.317 37.752 107.042C38.0657 106.614 38.3793 106.186 38.693 105.759C39.1962 104.799 39.7662 103.866 40.1189 102.833C40.205 102.599 40.3528 102.58 40.564 102.659C42.5705 103.496 44.6842 103.801 46.8454 103.778C47.6682 103.647 48.491 103.517 49.3139 103.387C49.6344 103.272 49.969 103.165 50.2896 103.05L50.2664 103.01C49.7647 101.09 48.9377 99.3097 47.6997 97.7402C46.928 96.7718 46.0799 95.9069 44.8684 95.4606C44.2487 95.2297 43.5847 95.2563 42.9477 95.0887C42.3129 95.2585 41.6843 95.4499 41.0679 95.6844C39.9224 96.1284 38.8852 96.7862 37.8356 97.401C36.8912 98.2188 35.9328 99.029 35.1388 100.002C34.4724 100.927 33.9038 101.905 33.433 102.937C33.2825 103.4 33.1351 103.874 32.9846 104.336C32.754 105.673 32.6555 107.018 32.9115 108.367C33.1293 109.459 33.5714 110.428 34.057 111.385Z" fill="#AD5A38"/>
<path d="M40.8567 66.3002C39.9796 66.3645 39.1222 66.6212 38.2345 66.6069C37.657 66.8535 36.9902 66.7877 36.425 67.0775C37.0604 67.2805 37.7509 67.223 38.3813 67.5324C39.8455 68.2446 40.7347 69.4591 41.4337 70.8329C42.4776 72.8775 43.1496 75.0634 43.7454 77.271C44.0117 78.244 44.2998 79.2107 44.5771 80.1806L44.5723 80.2052C45.6812 80.0864 46.7899 80.0493 47.8959 79.838C47.848 79.7118 47.8329 79.5763 47.7663 79.4671C46.9538 78.0674 46.1958 76.6522 45.6028 75.1548C44.9681 73.5527 44.4454 71.9303 44.4657 70.1877C44.4787 68.8318 44.8862 67.6196 46.0856 66.7871C44.5663 66.3356 42.9899 66.2616 41.4195 66.2909C41.2299 66.2868 41.0433 66.2935 40.8567 66.3002Z" fill="#E25520"/>
<path d="M27.9904 87.1949C27.6963 86.125 27.7072 86.1218 28.7066 85.6613C29.1737 85.3995 29.6269 85.1301 30.0941 84.8684C30.618 84.3106 31.2039 83.8051 31.6798 83.2028C32.4255 82.2669 32.9507 81.2192 33.4838 80.1576C33.5685 79.8769 33.6532 79.5963 33.7519 79.3233C33.8177 79.1413 33.95 79.0685 34.1473 79.1403C34.7547 79.328 35.3481 79.5081 35.9525 79.685C37.1755 79.8833 38.3861 80.1201 39.6219 80.1981C41.2619 80.2888 42.9129 80.3764 44.5552 80.1867L44.5505 80.2113C44.7419 80.7161 44.9225 81.224 45.1139 81.7288C44.191 82.0859 43.9499 83.2622 44.6003 84.2186C44.6979 84.3539 44.7955 84.4892 44.8931 84.6245C45.2625 84.8453 45.6398 85.0522 46.082 84.7859C46.4343 85.606 46.4054 86.5352 46.725 87.3647C46.5694 87.3975 46.5694 87.3975 46.725 87.3647C47.1828 89.3786 47.479 91.4038 47.0537 93.4604C47.0205 93.6331 47.0215 93.8426 46.8579 93.971C46.7891 94.1422 46.7233 94.3242 46.6544 94.4954C45.9997 94.5544 45.3589 94.621 44.7042 94.6799C44.0992 94.7479 43.5189 94.9022 42.9338 95.0811C42.299 95.2509 41.6703 95.4423 41.054 95.6767C39.9085 96.1207 38.8712 96.7786 37.8216 97.3934L37.8342 97.3548C36.8196 97.6798 35.812 97.6997 34.785 97.4454C33.3879 97.2154 32.2251 96.5686 31.2858 95.5083C30.5244 94.7817 30.0198 93.9235 29.7442 92.9182C29.0434 91.0436 28.5169 89.1193 27.9904 87.1949ZM34.1193 84.895C33.654 85.0397 33.5146 85.4176 33.4591 85.8414C33.4274 86.0603 33.4454 86.2883 33.4386 86.5117C33.5573 86.8858 33.6947 87.2428 33.9489 87.5548C34.4448 88.1358 34.9485 88.1667 35.5205 87.6534C35.885 86.8265 35.7953 86.0595 35.2406 85.3555C34.9602 84.9927 34.6172 84.741 34.1193 84.895ZM43.757 87.3272C43.2412 87.1716 42.8565 87.4331 42.6511 88.0747C42.1759 89.586 40.6541 90.0326 39.455 89.0116C38.8625 88.5049 38.5469 88.5135 37.9654 89.0761C37.9637 89.1115 37.973 89.1438 37.9822 89.1762C37.7465 89.5466 37.8933 89.8543 38.1569 90.117C39.0702 91.0449 40.1668 91.4192 41.472 91.1627C41.584 91.1423 41.6991 91.1327 41.8111 91.1124C43.0778 90.6803 43.9057 89.8259 44.273 88.5552C44.4706 87.9276 44.2588 87.4752 43.757 87.3272ZM41.825 91.12C41.8452 91.1493 41.8684 91.1892 41.8885 91.2185C41.8653 91.1785 41.8452 91.1493 41.825 91.12Z" fill="#FAE0BD"/>
<path d="M46.6793 94.5C46.0246 94.559 45.3838 94.6256 44.7291 94.6845C44.1241 94.7525 43.5438 94.9068 42.9587 95.0857C43.5957 95.2533 44.2566 95.2159 44.8794 95.4575C46.0909 95.9038 46.9499 96.7657 47.7107 97.7372C48.9487 99.3066 49.7726 101.076 50.2774 103.007C51.5955 102.548 52.7883 101.858 53.9243 100.927C53.992 101.164 54.0413 101.336 54.0906 101.509C54.5712 103.19 55.0766 104.875 55.5244 106.566C55.9154 108.016 56.4729 109.43 56.5807 110.961C57.5539 112.14 58.7833 112.896 60.3267 113.061C61.1536 113.151 61.5274 112.893 61.7454 112.213C61.4875 110.981 60.5424 110.353 59.5364 109.802C58.8517 109.426 58.0982 109.222 57.2368 109.258C57.4228 108.879 57.5745 108.544 57.7402 108.217C58.0242 107.273 58.3361 106.345 58.3932 105.349C58.4134 104.761 58.4446 104.169 58.4648 103.58C58.2547 103.093 58.2437 102.559 58.1425 102.041C57.8601 101.259 57.5559 100.483 57.1489 99.7601C55.7787 97.6456 53.8639 96.223 51.5202 95.3193C50.4048 94.9621 49.2658 94.7281 48.1126 94.5682C47.6369 94.5527 47.1581 94.5264 46.6793 94.5Z" fill="#964E32"/>
<path d="M52.1436 114.852C52.2728 115.387 51.72 115.72 51.7217 116.22C52.3255 116.024 52.9402 115.825 53.544 115.629C54.0035 115.3 54.5095 115.05 54.9179 114.666C55.9437 113.638 56.4601 112.395 56.5977 110.98C56.5038 109.456 55.9355 108.045 55.5414 106.584C55.0826 104.897 54.5881 103.208 54.1076 101.527C54.0583 101.355 54.009 101.182 53.9412 100.945C52.8053 101.876 51.6094 102.556 50.2943 103.025L50.3175 103.065C50.4192 103.421 50.5178 103.765 50.6085 104.124C50.7605 104.862 51.1302 105.537 51.1375 106.304C51.3123 106.627 51.3207 106.986 51.3866 107.34C51.6464 107.837 51.5982 108.411 51.7461 108.928C52.2194 108.688 52.6849 108.461 53.2366 108.537C53.5925 108.587 53.9155 108.727 54.0063 109.086C54.1018 109.42 53.8771 109.706 53.6248 109.895C53.1574 110.238 52.6114 110.347 52.0376 110.36C52.1081 111.307 52.3404 112.243 52.2631 113.21C52.3348 113.749 52.341 114.306 52.1436 114.852Z" fill="#F0D0AB"/>
<path d="M81.7187 98.7048C81.1973 97.2103 80.1666 96.5724 78.6003 96.822C78.297 96.8737 78.1977 96.7738 78.1378 96.5229C77.97 95.8948 77.7913 95.2697 77.6205 94.6308C77.5603 94.4615 77.511 94.2891 77.4508 94.1198C75.8902 94.5543 74.3187 94.9918 72.755 95.4155L72.7782 95.4555C73.1592 96.5822 73.5807 97.6857 73.8528 98.8435C74.8746 99.2858 75.1642 100.299 74.5366 101.236C74.6906 101.775 74.8447 102.313 74.9987 102.852C75.1601 103.54 75.3541 104.219 75.4689 104.909C75.6446 106.06 75.8124 107.224 75.3864 108.372C75.2392 108.763 75.0641 109.14 74.6035 109.26C74.6017 109.377 74.5858 109.486 74.584 109.603C74.8049 109.552 75.0227 109.49 75.2436 109.438C75.9454 109.214 76.6364 108.993 77.2934 108.654C78.5888 107.992 79.3737 106.905 79.8996 105.613C79.9756 105.136 80.0406 104.663 80.1165 104.187C80.0607 103.538 80.005 102.89 79.7827 102.277C79.6901 102.036 79.7185 101.888 80.0142 101.768C81.387 101.213 81.9823 100.122 81.7187 98.7048Z" fill="#F0D0AB"/>
<path d="M60.7694 103.399C60.6339 102.925 60.4984 102.451 60.3628 101.977C59.9954 102.175 59.6248 102.363 59.2465 102.564C58.9906 102.906 58.7316 103.236 58.4757 103.577C58.4554 104.166 58.4243 104.758 58.404 105.346C58.6586 105.495 58.6982 105.798 58.8671 106.018C59.6248 106.979 60.594 107.32 61.7921 106.977C61.4533 105.792 61.1114 104.596 60.7694 103.399Z" fill="#F0D0AB"/>
<path d="M72.7411 95.4079C72.3529 94.0501 72.0162 92.666 71.5518 91.33C71.058 89.9325 70.2496 88.7531 68.757 88.189C68.3206 88.0223 67.8179 88.201 67.416 87.9079C66.9434 87.9031 66.5724 88.2539 66.109 88.2815C65.4366 88.567 64.7473 88.7523 64.0317 88.8869C63.7625 88.9756 63.5025 89.0965 63.235 89.1497C61.8162 89.462 60.5708 90.0511 59.6224 91.1848C59.496 91.3608 59.3618 91.5508 59.2353 91.7268C59.1916 91.8209 59.1819 91.9519 59.0204 91.8815C59.1213 91.9459 59.0884 92.0369 59.0415 92.1202C58.7461 92.6942 58.5951 93.3202 58.4551 93.9431C58.4573 94.2805 58.4455 94.6103 58.4804 94.9383C58.6521 96.4046 59.1972 97.7758 59.5899 99.1906C60.6791 98.8792 61.7543 98.5602 62.8435 98.2489C62.6586 97.6023 62.4629 96.9589 62.2999 96.3061C62.0245 95.2191 62.6073 94.1666 63.6903 93.8337C64.2536 93.661 64.8091 93.5022 65.3785 93.3511C66.477 93.0721 67.5389 93.6544 67.8656 94.7151C68.0613 95.3585 68.2353 96.0082 68.431 96.6516C69.8827 96.2483 71.3344 95.845 72.797 95.4386L72.7411 95.4079Z" fill="#8174BE"/>
<path d="M34.2002 88.9285C33.6807 89.0071 33.2419 89.1208 32.7281 89.3843C32.6254 89.437 32.5397 89.5081 32.454 89.5792C32.1111 89.8637 31.8008 90.2205 31.9441 90.6808C32.0813 91.1195 32.4976 91.2569 32.925 91.3096C33.7223 91.4197 34.4272 91.2066 35.007 90.6795C35.3359 90.3873 35.5018 89.9785 35.3802 89.512C35.2862 89.2242 34.8426 88.8265 34.2002 88.9285Z" fill="#E5C597"/>
<path d="M34.2002 88.9285C33.6807 89.0071 33.2419 89.1208 32.7281 89.3843C32.6254 89.437 32.5397 89.5081 32.454 89.5792C32.1111 89.8637 31.8008 90.2205 31.9441 90.6808C32.0813 91.1195 32.4976 91.2569 32.925 91.3096C33.7223 91.4197 34.4272 91.2066 35.007 90.6795C35.3359 90.3873 35.5018 89.9785 35.3802 89.512C35.2862 89.2242 34.8426 88.8265 34.2002 88.9285Z" fill="#E5C597"/>
<path d="M49.4428 79.8504C49.2794 79.8971 49.0789 79.8961 48.9776 79.9951C48.5318 80.4139 48.2009 80.287 47.9067 79.8349C46.8116 80.043 45.6921 80.0833 44.5832 80.2021C44.7746 80.7069 44.9552 81.2148 45.1466 81.7196C46.5094 81.9945 47.0567 83.7031 46.1147 84.7767C46.467 85.5969 46.4381 86.526 46.7577 87.3555C47.2155 89.3695 47.5117 91.3947 47.0863 93.4512C47.0532 93.6239 47.0542 93.8334 46.8906 93.9618C46.8217 94.133 46.7559 94.315 46.6871 94.4863C47.1659 94.5126 47.6447 94.5389 48.1344 94.5621C48.6761 94.314 49.255 94.1135 49.7705 93.8147C51.4865 92.8112 52.6316 91.3765 53.021 89.4001C52.9684 89.2986 52.9454 89.177 52.8772 89.1032C51.967 88.1861 51.5784 86.9916 51.196 85.8187C50.6717 84.2317 50.2672 82.6105 49.8051 80.9941C49.6646 80.6263 49.5537 80.2383 49.4428 79.8504ZM47.9163 84.9378C48.2743 84.7888 48.6846 84.823 49.0607 84.9021C49.4258 84.9842 49.8452 85.1324 49.9093 85.6037C49.9671 86.0534 49.6942 86.3762 49.384 86.6514C49.0552 86.9435 48.704 86.8691 48.3563 86.6421C48.1235 86.4871 47.8595 86.3878 47.6267 86.2329C47.3489 86.0442 46.7924 85.9934 46.8338 85.6435C46.8816 85.2336 47.4198 85.138 47.7825 84.9644C47.8261 84.9519 47.8618 84.9533 47.9163 84.9378Z" fill="#F0D0AB"/>
<path d="M33.4356 86.501C33.5543 86.8751 33.6917 87.2321 33.9458 87.5441C34.4418 88.1251 34.9454 88.156 35.5174 87.6427C35.8819 86.8158 35.7923 86.0488 35.2376 85.3448C34.9602 84.9928 34.6173 84.7411 34.1193 84.8951C33.6541 85.0398 33.5147 85.4177 33.4591 85.8415C33.4274 86.0604 33.4424 86.2776 33.4356 86.501Z" fill="#484346"/>
<path d="M37.9931 89.173C37.9839 89.1407 37.9746 89.1084 37.9763 89.0729C38.5577 88.5104 38.8734 88.5018 39.4659 89.0085C40.6541 90.0326 42.1759 89.586 42.662 88.0715C42.8565 87.4331 43.2552 87.1792 43.7679 87.3241C44.2697 87.4721 44.4815 87.9244 44.2948 88.549C43.9166 89.8227 43.0996 90.6741 41.8329 91.1061C41.7209 91.1265 41.6058 91.1361 41.4938 91.1565C40.1886 91.413 39.092 91.0387 38.1787 90.1108C37.9042 89.8512 37.7573 89.5435 37.9931 89.173Z" fill="#E25520"/>
<path d="M46.1178 84.7873C47.0489 83.7169 46.5125 82.0051 45.1497 81.7303C44.2267 82.0874 43.9857 83.2637 44.6361 84.2201C44.7337 84.3554 44.8312 84.4907 44.9288 84.626C45.2983 84.8468 45.6755 85.0537 46.1178 84.7873Z" fill="#484346"/>
<path d="M51.5342 95.3271C53.1788 94.8569 54.8297 94.4084 56.3509 93.5888C56.6483 93.4339 56.9456 93.2789 57.243 93.124C57.8318 92.7109 58.4238 92.3085 59.0126 91.8954C59.0192 91.7537 59.1172 91.7256 59.2275 91.7407C59.354 91.5647 59.4882 91.3748 59.6255 91.1957C58.5256 91.4285 57.4215 91.5226 56.3341 91.1807C55.1126 90.947 54.0896 90.3769 53.2462 89.4873C53.1685 89.4628 53.0909 89.4384 53.0132 89.414C52.6347 91.3873 51.4787 92.8251 49.7627 93.8285C49.2472 94.1274 48.6792 94.3248 48.1266 94.576C49.2798 94.7359 50.4188 94.9698 51.5342 95.3271Z" fill="#E25520"/>
<path d="M38.3739 113.998C37.8239 112.115 37.2709 110.222 36.7209 108.339C36.6654 108.145 36.6581 107.996 36.8404 107.85C37.1567 107.597 37.4529 107.314 37.763 107.039C38.0767 106.611 38.3903 106.183 38.704 105.756C39.2072 104.796 39.7772 103.864 40.1299 102.83C40.216 102.596 40.3638 102.577 40.575 102.656C42.5815 103.493 44.6952 103.798 46.8564 103.775C47.6792 103.645 48.502 103.514 49.3248 103.384C49.6454 103.269 49.98 103.162 50.3006 103.047C50.4023 103.402 50.5008 103.747 50.5916 104.106C50.7435 104.844 51.1133 105.519 51.1205 106.286C50.8216 105.859 50.4742 105.55 49.8998 105.807C49.8905 105.775 49.8922 105.74 49.8751 105.721C49.8844 105.754 49.8905 105.775 49.8998 105.807C49.463 106.34 49.4802 106.895 49.7647 107.478C49.9518 107.844 50.2059 108.156 50.6506 108.146C51.1529 108.13 51.2411 107.697 51.3587 107.325C51.6186 107.822 51.5673 108.385 51.7183 108.913C51.1627 109.69 51.224 109.987 52.0098 110.345C52.0803 111.292 52.3125 112.228 52.2353 113.195C52.3022 113.758 52.3194 114.313 52.122 114.859C52.2511 115.393 51.6983 115.726 51.7 116.227C49.7753 116.789 47.8474 117.34 45.9226 117.902C45.8045 117.9 45.6863 117.899 45.5682 117.898C44.9239 118.117 44.2519 118.239 43.5768 118.351C43.3282 118.305 43.0795 118.26 42.8309 118.214C41.4319 118.101 40.3141 117.488 39.4885 116.372C39.3082 116.319 39.2919 116.055 39.0664 116.05C38.9424 115.328 38.4543 114.733 38.3739 113.998ZM48.7033 113.039C48.7033 113.039 48.7002 113.028 48.7033 113.039C48.7002 113.028 48.7033 113.039 48.7033 113.039ZM45.1236 112.675C46.0075 113.541 47.3878 113.671 48.4437 112.996C48.5091 112.978 48.5745 112.959 48.6538 112.948C48.9672 112.602 49.4017 112.349 49.5181 111.85C49.5508 111.841 49.6963 111.484 49.7434 111.319C49.8861 110.87 49.7705 110.507 49.3106 110.382C48.8756 110.262 48.5408 110.451 48.4291 110.926C48.4149 111 48.3771 111.197 48.3754 111.232C48.0975 111.661 47.722 111.955 47.2257 112.074C46.7453 112.083 46.3134 111.973 45.9723 111.605C45.8158 111.428 45.6029 111.384 45.3774 111.378C44.6768 111.73 44.5964 112.149 45.1236 112.675ZM41.5255 109.938C42.0163 110.707 42.5931 110.705 43.0353 109.903C43.0814 109.528 43.0451 109.154 42.889 108.814C42.7174 108.42 42.4789 108.08 41.9954 108.079C41.487 108.072 41.3848 108.498 41.2532 108.862C41.2895 109.236 41.3009 109.606 41.5255 109.938Z" fill="#FAE0BD"/>
<path d="M43.0353 109.903C43.0814 109.528 43.0451 109.154 42.889 108.814C42.7175 108.42 42.4789 108.08 41.9954 108.079C41.487 108.072 41.3848 108.498 41.2532 108.862C41.3004 109.233 41.3119 109.603 41.5333 109.924C42.0163 110.707 42.5931 110.705 43.0353 109.903Z" fill="#484346"/>
<path d="M51.7369 108.896C51.1813 109.672 51.2427 109.969 52.0284 110.328C52.6052 110.326 53.1513 110.217 53.6156 109.862C53.8788 109.671 54.0926 109.388 53.9971 109.054C53.8954 108.698 53.5833 108.554 53.2274 108.505C52.6757 108.429 52.2102 108.655 51.7369 108.896Z" fill="#E5C597"/>
<path d="M51.1283 106.272C50.8294 105.845 50.482 105.536 49.9076 105.793C49.4708 106.326 49.4879 106.881 49.7724 107.464C49.9596 107.83 50.2137 108.142 50.6584 108.131C51.1607 108.116 51.2489 107.683 51.3665 107.311C51.3255 106.962 51.3031 106.595 51.1283 106.272Z" fill="#484346"/>
<path d="M60.7695 103.4C60.8114 103.423 60.8502 103.435 60.8921 103.458C60.8533 103.445 60.8114 103.423 60.7695 103.4C60.6339 102.925 60.4984 102.451 60.3629 101.977C60.3013 101.762 60.2427 101.557 60.1811 101.341C60.9295 101.734 61.6747 102.115 62.4013 102.513C61.6638 102.118 60.9155 101.726 60.1811 101.341C60.1487 101.269 60.1193 101.207 60.0868 101.135C59.9129 100.485 59.739 99.8357 59.565 99.1861C60.6542 98.8747 61.7294 98.5557 62.8186 98.2443C63.6604 98.0154 64.5021 97.7864 65.3439 97.5574C66.0301 97.3613 66.7271 97.162 67.4102 96.9551C67.7339 96.8509 68.0685 96.7436 68.3922 96.6394C69.8439 96.2361 71.2956 95.8328 72.7581 95.4264C73.1391 96.5531 73.5606 97.6565 73.8327 98.8144C73.1498 98.9396 73.0582 99.4437 73.0676 100.012C73.2856 101.022 73.7309 101.385 74.5165 101.207C74.6705 101.745 74.8246 102.284 74.9786 102.823C75.14 103.511 75.334 104.19 75.4488 104.88C75.6245 106.031 75.7924 107.195 75.3664 108.342C75.2191 108.734 75.044 109.111 74.5835 109.231C74.5816 109.348 74.5657 109.457 74.5639 109.574C74.0877 109.722 73.6224 109.867 73.1463 110.014C73.0343 110.035 72.9223 110.055 72.8212 110.072C71.2698 110.539 69.7232 110.981 68.1348 111.319C66.926 111.583 65.7852 111.466 64.6889 110.928C63.0322 110.12 62.1809 108.708 61.7891 106.966C61.4533 105.792 61.1114 104.596 60.7695 103.4ZM65.2887 101.28C64.8343 101.422 64.632 102.074 64.8308 102.728C65.0235 103.361 65.5447 103.783 65.9804 103.658C66.4518 103.535 66.6603 102.905 66.4554 102.229C66.2582 101.539 65.754 101.135 65.2887 101.28ZM73.2813 104.346C73.3679 103.948 73.1836 103.674 72.8232 103.567C72.424 103.448 72.1218 103.628 71.9746 104.02C71.879 104.304 71.7943 104.584 71.576 104.81C71.0273 105.363 70.2077 105.422 69.5841 104.89C69.2708 104.618 68.9495 104.442 68.5756 104.7C68.2314 104.938 68.2257 105.29 68.388 105.651C68.892 106.137 69.4819 106.469 70.1734 106.621C71.5073 106.671 72.5161 106.161 73.0932 104.924C73.1838 104.747 73.2326 104.546 73.2813 104.346Z" fill="#FAE0BD"/>
<path d="M73.0737 100.034C73.2918 101.044 73.737 101.406 74.5227 101.228C75.1502 100.291 74.8607 99.2781 73.8388 98.8359C73.145 98.9643 73.0675 99.476 73.0737 100.034Z" fill="#484346"/>
<path d="M70.1765 106.632C71.5103 106.682 72.5192 106.172 73.0963 104.935C73.1838 104.746 73.2326 104.546 73.2813 104.346C73.3679 103.948 73.1836 103.674 72.8232 103.567C72.4239 103.448 72.1218 103.628 71.9746 104.02C71.879 104.304 71.7943 104.584 71.576 104.81C71.0273 105.363 70.2077 105.422 69.5841 104.89C69.2708 104.618 68.9495 104.442 68.5756 104.7C68.2314 104.938 68.2257 105.29 68.388 105.651C68.8951 106.147 69.485 106.48 70.1765 106.632Z" fill="#E25520"/>
<path d="M65.3469 97.5681C66.0331 97.372 66.7302 97.1727 67.4133 96.9658C67.737 96.8616 68.0716 96.7543 68.3952 96.6501C68.2104 96.0036 68.0365 95.3539 67.8299 94.7136C67.5031 93.6529 66.4381 93.0598 65.3428 93.3496C64.7733 93.5007 64.2179 93.6595 63.6546 93.8322C62.5746 94.1759 61.9888 95.2176 62.2641 96.3046C62.4381 96.9542 62.6229 97.6008 62.8077 98.2474C63.6634 98.0261 64.5052 97.7971 65.3469 97.5681Z" fill="#E67E3D"/>
<path d="M45.3804 111.389C45.6058 111.394 45.8187 111.438 45.9753 111.615C46.3054 111.987 46.7483 112.093 47.2287 112.084C47.7359 111.963 48.1145 111.68 48.3784 111.243C48.3801 111.207 48.3708 111.175 48.3507 111.146C48.3788 111.079 48.407 111.013 48.4321 110.936C48.5438 110.461 48.8894 110.269 49.3136 110.393C49.7734 110.518 49.8891 110.881 49.7464 111.33C49.6962 111.484 49.6491 111.649 49.6129 111.811C49.5833 111.831 49.5506 111.84 49.5211 111.86C49.4046 112.36 48.9702 112.612 48.6567 112.958C48.5914 112.977 48.526 112.996 48.4467 113.007C47.3907 113.682 46.0105 113.552 45.1266 112.685C44.5963 112.149 44.6767 111.73 45.3804 111.389Z" fill="#E25520"/>
<path d="M47.9162 84.9378C47.8618 84.9533 47.8182 84.9658 47.7855 84.9751C47.4197 85.138 46.8846 85.2443 46.8368 85.6543C46.7955 86.0042 47.3411 86.058 47.6297 86.2436C47.8625 86.3985 48.1266 86.4979 48.3594 86.6528C48.707 86.8798 49.0582 86.9543 49.3871 86.6621C49.6972 86.387 49.9702 86.0641 49.9123 85.6144C49.8592 85.14 49.4289 84.9949 49.0637 84.9128C48.6924 84.8091 48.2851 84.7857 47.9162 84.9378Z" fill="#E5C597"/>
<path d="M66.4585 102.24C66.2614 101.55 65.7681 101.143 65.2919 101.291C64.8375 101.433 64.6352 102.085 64.834 102.739C65.0266 103.372 65.5479 103.794 65.9836 103.669C66.4441 103.549 66.6526 102.919 66.4585 102.24Z" fill="#484346"/>
<path d="M52.1874 64.1451C51.8302 64.5853 51.462 65.0286 51.1048 65.4687C50.9031 65.8761 50.6347 66.2559 50.5277 66.7061C50.5803 66.8076 50.6111 66.9154 50.6715 67.003C51.7789 68.6098 52.6309 70.3129 53.0393 72.2361C54.0681 71.8371 55.0693 71.8773 56.0911 72.3196C57.6472 72.9821 59.216 72.9883 60.7959 72.2919C61.3486 72.0406 61.8145 71.651 62.3299 71.3521C62.6481 70.9814 62.9663 70.6107 63.2845 70.24C63.622 69.6073 64.1301 69.159 64.8117 68.9058C64.8352 68.8642 64.8586 68.8225 64.8929 68.7777C64.8747 68.6314 64.8207 68.4836 64.8273 68.3419C64.8784 67.2432 64.8394 66.1586 64.7366 65.0573C64.6068 63.614 64.1065 62.3582 63.0987 61.3058C62.5142 60.7036 61.7547 60.3961 60.9922 60.0779C60.5908 60.1576 60.1755 60.2297 59.7742 60.3095C59.0911 60.5164 58.394 60.7157 57.7109 60.9226C56.7302 61.3661 55.7248 61.7235 54.7827 62.2609C53.8406 62.7983 52.99 63.4494 52.1874 64.1451Z" fill="#AD5A38"/>
<path d="M60.9923 60.078C61.7517 60.3854 62.5112 60.6929 63.0988 61.3059C64.1065 62.3583 64.6069 63.6141 64.7367 65.0574C64.8364 66.1479 64.8785 67.2433 64.8273 68.342C64.8207 68.4837 64.8638 68.6346 64.893 68.7778C66.8209 68.2267 68.2576 68.7602 69.3554 70.4163C69.6233 70.8177 69.8943 71.2298 70.2183 71.5801C70.8756 72.3131 71.5998 72.992 72.646 73.066C73.1776 73.1122 73.7252 72.9673 74.263 73.035C74.0996 71.9277 73.9363 70.8204 73.776 69.7239C73.6767 69.0878 73.5695 68.4657 73.4702 67.8297C73.2289 66.7796 73.0063 65.7125 72.667 64.6905C72.3154 63.6253 71.8689 62.5989 71.1872 61.6981C69.9432 60.0254 68.2226 59.2817 66.1592 59.3586C64.4254 59.4346 62.6928 59.6385 60.9923 60.078Z" fill="#964E32"/>
<path d="M74.266 73.0457C73.7205 72.9918 73.1806 73.1228 72.649 73.0766C71.5997 72.9919 70.8786 72.3238 70.2213 71.5908C69.9051 71.2266 69.6264 70.8284 69.3585 70.427C68.2466 68.7632 66.8239 68.2374 64.896 68.7885C64.8726 68.8301 64.8492 68.8718 64.8148 68.9166C65.1903 69.7768 65.5549 70.64 65.8028 71.5483C66.2441 72.2265 66.248 73.0647 66.6566 73.7522C66.7706 74.1509 66.8876 74.5604 67.0016 74.9591C68.1535 75.609 68.4862 76.7728 67.8426 77.901C68.0132 78.6215 68.2414 79.3373 68.3218 80.072C68.3643 80.4678 68.6042 80.8539 68.4632 81.2672C68.4923 81.4104 68.593 81.5565 68.4962 81.7124C68.8697 82.1535 69.1078 82.6566 69.257 83.22C69.4618 83.9775 69.4649 83.9883 68.7195 84.2246C68.9013 85.3966 68.6418 86.5082 68.2719 87.6048C69.2209 87.3801 70.1439 87.0231 71.1436 87.017C71.5199 87.0144 71.8945 87.0472 72.2629 87.0584C72.7582 86.7303 73.1233 86.2763 73.5333 85.856C73.8003 85.43 74.0674 85.0039 74.3344 84.5779C74.7869 83.3994 75.0763 82.186 74.8776 80.914C74.763 80.1424 74.5583 79.385 74.4002 78.6258C74.3618 78.4503 74.1821 78.2336 74.4887 78.111C74.948 77.8631 75.336 77.5307 75.7179 77.1768C76.6144 75.6966 76.2882 73.8548 74.266 73.0457Z" fill="#F0D0AB"/>
<path d="M46.0856 66.7871C44.8862 67.6195 44.4787 68.8317 44.4657 70.1876C44.4454 71.9303 44.979 73.5495 45.6028 75.1547C46.1989 76.6629 46.9569 78.0781 47.7663 79.467C47.8328 79.5762 47.8589 79.7086 47.8959 79.8379C48.1901 80.2901 48.5209 80.417 48.9667 79.9981C49.0789 79.8961 49.2795 79.897 49.4319 79.8535C49.619 79.6834 49.8029 79.5026 49.99 79.3326C50.2179 78.976 50.4428 78.6086 50.573 78.1984C50.8771 77.2839 50.9526 76.353 50.9645 75.4055C50.9739 74.82 51.0749 74.2665 51.4167 73.7725C51.642 73.2418 52.0675 72.8754 52.5069 72.5167C50.9881 70.1299 49.4163 67.8049 46.7628 66.4769C46.5542 66.5715 46.3269 66.6831 46.0856 66.7871Z" fill="#AD5A38"/>
<path d="M46.7846 66.4708C49.4381 67.7988 51.01 70.1238 52.5288 72.5105C52.5645 72.512 52.5972 72.5026 52.6438 72.5009C52.7731 72.4174 52.9102 72.3199 53.0395 72.2363C52.6233 70.327 51.7681 68.6132 50.6717 67.0032C50.6113 66.9156 50.5805 66.8078 50.5279 66.7063C49.9312 66.5971 49.3737 66.3368 48.7566 66.2801C48.082 66.2282 47.4182 66.1731 46.7846 66.4708Z" fill="#964E32"/>
<path d="M62.1088 85.8696C62.6753 85.0899 63.1719 84.2718 63.0164 83.1506C64.0304 84.7608 65.231 85.2102 66.9768 84.7229C67.5541 84.5578 68.1453 84.4005 68.7226 84.2355C69.4758 83.9852 69.4649 83.9883 69.2601 83.2309C69.1109 82.6674 68.8728 82.1643 68.4993 81.7232C67.7409 81.0074 66.8479 80.6449 65.7871 80.8083C65.4045 80.871 65.0263 80.9908 64.642 81.089C63.1607 81.5124 61.6887 81.9682 60.2012 82.3701C59.2941 82.6177 58.5528 83.0744 58.002 83.8264C57.8095 84.266 57.6621 84.7395 57.5722 85.2081C57.5847 85.7874 57.7775 86.3384 57.9237 86.8911C57.9991 87.196 58.1279 87.2757 58.4407 87.1746C59.0693 86.9833 59.7072 86.8242 60.342 86.6544C60.9799 86.4954 61.5358 86.1733 62.1088 85.8696Z" fill="#AD5A38"/>
<path d="M67.0016 74.959C66.291 74.9872 65.9808 75.2624 65.881 75.9437C65.7938 76.5864 65.9571 77.1576 66.3708 77.6571C66.8187 78.1935 67.2243 78.2524 67.8317 77.9039C68.4862 76.7727 68.1566 75.6196 67.0016 74.959Z" fill="#484346"/>
<path d="M49.7786 81.0249C49.6677 80.637 49.5537 80.2383 49.4428 79.8503C49.6298 79.6803 49.8138 79.4995 50.0008 79.3295C50.2288 78.9729 50.4536 78.6055 50.5838 78.1953C50.8879 77.2808 50.9635 76.3499 50.9754 75.4023C50.9847 74.8168 51.0857 74.2634 51.4276 73.7694C51.6529 73.2387 52.0783 72.8723 52.5177 72.5135C52.5535 72.515 52.5862 72.5056 52.6328 72.504C52.7621 72.4204 52.8992 72.3229 53.0285 72.2393C54.0572 71.8403 55.0584 71.8805 56.0803 72.3228C57.6364 72.9854 59.2051 72.9915 60.7851 72.2951C61.3377 72.0439 61.8036 71.6542 62.3191 71.3553C62.6373 70.9846 62.9554 70.6139 63.2736 70.2432C63.6111 69.6105 64.1192 69.1622 64.8009 68.9091C65.1764 69.7692 65.541 70.6325 65.7888 71.5408C66.2301 72.219 66.2341 73.0571 66.6427 73.7446C66.7567 74.1433 66.8737 74.5528 66.9877 74.9515C66.2771 74.9798 65.9669 75.255 65.8671 75.9363C65.7799 76.579 65.9432 77.1502 66.3569 77.6497C66.8048 78.1861 67.2104 78.245 67.8177 77.8965C67.9884 78.6171 68.2166 79.3329 68.297 80.0676C68.3394 80.4634 68.5794 80.8494 68.4383 81.2628C68.4675 81.406 68.5682 81.552 68.4713 81.7079C67.713 80.9922 66.82 80.6297 65.7592 80.793C65.3765 80.8558 64.9984 80.9755 64.6141 81.0737C63.1328 81.4972 61.6608 81.9529 60.1733 82.3548C59.2662 82.6025 58.5249 83.0592 57.974 83.8111C57.7816 84.2508 57.6342 84.7242 57.5443 85.1929C57.5567 85.7722 57.7496 86.3232 57.8958 86.8759C57.9711 87.1807 58.1 87.2605 58.4128 87.1594C59.0414 86.968 59.6793 86.809 60.3141 86.6392C60.9551 86.4909 61.5219 86.1657 62.0949 85.862C62.6614 85.0823 63.158 84.2642 63.0024 83.143C64.0165 84.7532 65.2171 85.2027 66.9629 84.7153C67.5401 84.5503 68.1314 84.3929 68.7086 84.2279C68.8905 85.3998 68.6309 86.5115 68.261 87.608C67.97 87.7029 67.6899 87.7946 67.402 87.9002C66.9294 87.8954 66.5584 88.2463 66.095 88.2738C65.0056 87.5128 65.0056 87.5128 66.095 88.2738C65.4226 88.5593 64.7333 88.7447 64.0177 88.8793C63.7485 88.9679 63.4885 89.0889 63.221 89.142C61.8022 89.4544 60.5568 90.0435 59.6084 91.1772C58.5085 91.41 57.4044 91.5041 56.317 91.1622C55.0956 90.9285 54.0725 90.3584 53.2291 89.4688C53.1514 89.4444 53.0738 89.4199 52.9961 89.3955C52.9435 89.294 52.9205 89.1723 52.8523 89.0986C51.9421 88.1814 51.5535 86.987 51.1711 85.8141C50.653 84.2487 50.2375 82.6306 49.7786 81.0249ZM55.839 81.041C56.3667 81.403 56.9191 81.2335 57.1787 80.658C57.5072 79.9113 57.1622 78.7044 56.4918 78.255C55.9672 77.9037 55.4087 78.0517 55.1521 78.6379C54.9675 79.0637 54.9647 79.5074 55.1128 79.943C55.2313 80.3987 55.4573 80.7771 55.839 81.041Z" fill="#FAE0BD"/>
<path d="M55.1159 79.9537C55.2204 80.4018 55.4573 80.777 55.839 81.0409C56.3667 81.403 56.9191 81.2334 57.1787 80.6579C57.5072 79.9113 57.1622 78.7043 56.4918 78.2549C55.9672 77.9036 55.4087 78.0516 55.1521 78.6378C54.9706 79.0744 54.9787 79.515 55.1159 79.9537Z" fill="#484346"/>
<path d="M26.5252 89.3426C26.5252 89.3426 27.4297 91.3661 29.9487 92.7651C32.4678 94.1642 34.6636 93.8625 34.6636 93.8625C34.6636 93.8625 32.6401 94.7669 31.241 97.286C29.842 99.805 30.1437 102.001 30.1437 102.001C30.1437 102.001 29.2393 99.9773 26.7202 98.5783C24.2012 97.1793 22.0053 97.4809 22.0053 97.4809C22.0053 97.4809 24.0289 96.5765 25.4279 94.0575C26.8269 91.5384 26.5252 89.3426 26.5252 89.3426Z" fill="white"/>
<path d="M71.4505 112.902C71.4505 112.902 72.0417 114.225 73.6881 115.139C75.3345 116.054 76.7697 115.856 76.7697 115.856C76.7697 115.856 75.4471 116.448 74.5327 118.094C73.6183 119.74 73.8155 121.176 73.8155 121.176C73.8155 121.176 73.2244 119.853 71.5779 118.939C69.9315 118.024 68.4963 118.221 68.4963 118.221C68.4963 118.221 69.8189 117.63 70.7333 115.984C71.6477 114.337 71.4505 112.902 71.4505 112.902Z" fill="white"/>
<mask id="mask1" mask-type="alpha" maskUnits="userSpaceOnUse" x="113" y="76" width="85" height="85">
<path d="M143.289 158.591C165.492 165.304 188.934 152.747 195.647 130.543C202.36 108.34 189.802 84.8985 167.599 78.1855C145.396 71.4724 121.954 84.0297 115.241 106.233C108.528 128.436 121.086 151.878 143.289 158.591Z" fill="#00C0F3"/>
</mask>
<g mask="url(#mask1)">
<path d="M143.289 158.591C165.492 165.304 188.934 152.747 195.647 130.543C202.36 108.34 189.802 84.8985 167.599 78.1855C145.396 71.4724 121.954 84.0297 115.241 106.233C108.528 128.436 121.086 151.878 143.289 158.591Z" fill="#00C0F3"/>
<path d="M142.963 142.856L154.192 146.251C154.231 146.263 154.282 146.279 154.331 146.259L149.399 162.568C147.617 162.687 145.882 162.509 144.217 162.005C141.958 161.323 139.937 160.088 138.143 158.334L142.844 142.786C142.873 142.829 142.925 142.845 142.963 142.856Z" fill="#FEA95C"/>
<path d="M154.206 146.256C154.24 146.266 154.286 146.28 154.331 146.259L149.372 162.659C148.305 162.789 147.274 162.756 146.25 162.62L151.449 145.422L154.206 146.256Z" fill="#FF9240"/>
<path d="M166.923 116.942L165.902 120.32C165.555 121.466 164.374 122.132 163.277 121.8L162.422 121.542C161.325 121.21 160.711 120.001 161.057 118.855L161.192 118.409L160.907 118.323C160.561 119.468 159.379 120.135 158.282 119.803L157.427 119.544C156.33 119.213 155.716 118.004 156.062 116.858L156.422 115.667L156.137 115.581C155.791 116.727 154.61 117.393 153.512 117.061L152.657 116.803C151.56 116.471 150.946 115.262 151.293 114.116L151.473 113.521L151.188 113.435C150.841 114.581 149.66 115.247 148.563 114.915L147.708 114.657C146.611 114.325 145.996 113.116 146.343 111.97L146.689 110.824L145.165 110.363L144.409 112.863L147.129 118.217L166.436 124.055L168.448 117.403L166.923 116.942Z" fill="#E3F3FF"/>
<path d="M165.519 113.974L164.676 113.719C163.524 113.371 162.278 114.041 161.929 115.198L162.526 113.223C162.875 112.067 162.21 110.819 161.058 110.471L160.215 110.216C159.063 109.867 157.818 110.538 157.468 111.694L158.022 109.861C158.372 108.704 157.707 107.456 156.555 107.108L155.712 106.853C154.56 106.505 153.314 107.175 152.965 108.332L153.178 107.626C153.528 106.47 152.862 105.222 151.71 104.874L150.867 104.619C149.715 104.27 148.47 104.941 148.12 106.097L146.287 112.162C145.937 113.318 146.602 114.566 147.754 114.915L148.597 115.17C149.749 115.518 150.995 114.848 151.344 113.691L151.174 114.255C150.824 115.412 151.489 116.66 152.641 117.008L153.484 117.263C154.636 117.611 155.882 116.941 156.231 115.784L155.89 116.913C155.54 118.069 156.206 119.317 157.358 119.666L158.201 119.92C159.353 120.269 160.598 119.598 160.948 118.442L160.82 118.865C160.47 120.022 161.136 121.27 162.288 121.618L163.131 121.873C164.283 122.221 165.528 121.551 165.878 120.394L166.986 116.727C167.34 115.556 166.671 114.323 165.519 113.974Z" fill="#FDB97E"/>
<path d="M131.028 106.089L128.782 105.41C128.188 105.23 127.5 105.753 127.252 106.572L126.141 110.248C125.893 111.066 126.177 111.883 126.771 112.062L129.017 112.741L131.028 106.089Z" fill="#E3F3FF"/>
<path d="M184.83 122.356L182.584 121.677L180.573 128.329L182.819 129.008C183.413 129.188 184.101 128.665 184.349 127.846L185.46 124.171C185.708 123.352 185.424 122.535 184.83 122.356Z" fill="#E3F3FF"/>
<path d="M179.525 114.399L178.523 114.096L172.992 132.39L173.994 132.693C176.654 133.497 179.291 132.566 179.881 130.615L183.275 119.39C183.861 117.453 182.166 115.197 179.525 114.399Z" fill="#3C87D0"/>
<path d="M176.46 108.027L175.288 107.673C173.316 107.076 171.24 108.167 170.654 110.106C170.654 110.106 163.393 134.123 163.979 132.183C163.393 134.123 164.517 136.18 166.489 136.776L167.66 137.131C169.632 137.727 171.708 136.637 172.294 134.697L178.969 112.62C179.551 110.695 178.431 108.623 176.46 108.027Z" fill="#0268B4"/>
<path d="M175.28 111.505L168.605 133.582C168.163 135.043 166.893 136.04 165.492 136.184C165.837 136.472 166.245 136.703 166.696 136.839L167.816 137.178C169.702 137.748 171.708 136.637 172.294 134.697L178.969 112.62C179.556 110.681 178.501 108.644 176.616 108.074L175.495 107.735C175.044 107.599 174.577 107.565 174.13 107.614C175.23 108.514 175.722 110.043 175.28 111.505Z" fill="#13326F"/>
<path d="M131.824 120.851L132.827 121.154L138.358 102.86L137.355 102.557C134.696 101.753 132.058 102.683 131.468 104.634L128.074 115.859C127.489 117.796 129.184 120.052 131.824 120.851Z" fill="#3C87D0"/>
<path d="M144.861 98.4731L143.69 98.1189C141.718 97.5228 139.642 98.6129 139.055 100.552C139.055 100.552 131.794 124.569 132.38 122.63C131.794 124.569 132.918 126.627 134.89 127.223L136.062 127.577C138.033 128.173 140.109 127.083 140.696 125.144L147.371 103.066C147.953 101.141 146.833 99.0693 144.861 98.4731Z" fill="#0268B4"/>
<path d="M143.682 101.951L137.007 124.028C136.565 125.49 135.294 126.486 133.894 126.63C134.239 126.919 134.646 127.149 135.097 127.285L136.218 127.624C138.103 128.194 140.109 127.083 140.696 125.144L147.371 103.066C147.957 101.127 146.903 99.0904 145.017 98.5203L143.897 98.1815C143.446 98.0452 142.979 98.0114 142.532 98.0602C143.631 98.9602 144.123 100.489 143.682 101.951Z" fill="#13326F"/>
<path d="M162.927 119.502L164.036 115.835C164.322 114.89 165.183 114.273 166.121 114.264C165.941 114.149 165.743 114.042 165.519 113.975L164.676 113.72C163.524 113.371 162.278 114.042 161.929 115.198L160.82 118.865C160.47 120.022 161.136 121.27 162.288 121.618L163.131 121.873C163.355 121.941 163.575 121.976 163.793 121.965C163.017 121.438 162.642 120.447 162.927 119.502Z" fill="#FEA95C"/>
<path d="M157.998 117.55L159.575 112.331C159.861 111.386 160.722 110.769 161.66 110.761C161.481 110.645 161.283 110.539 161.058 110.471L160.215 110.216C159.063 109.867 157.818 110.538 157.468 111.694L155.89 116.913C155.536 118.083 156.206 119.317 157.358 119.666L158.201 119.92C158.426 119.988 158.645 120.024 158.863 120.013C158.087 119.486 157.712 118.495 157.998 117.55Z" fill="#FEA95C"/>
<path d="M153.281 114.893L155.072 108.969C155.358 108.024 156.219 107.407 157.157 107.398C156.977 107.282 156.779 107.176 156.555 107.108L155.712 106.853C154.56 106.505 153.314 107.175 152.965 108.332L151.174 114.255C150.824 115.412 151.489 116.66 152.641 117.008L153.484 117.263C153.709 117.331 153.928 117.367 154.146 117.355C153.37 116.828 152.995 115.838 153.281 114.893Z" fill="#FEA95C"/>
<path d="M148.394 112.799L150.228 106.734C150.513 105.789 151.374 105.172 152.312 105.163C152.133 105.048 151.935 104.941 151.71 104.874L150.867 104.619C149.715 104.27 148.47 104.941 148.12 106.097L146.287 112.162C145.937 113.319 146.602 114.566 147.754 114.915L148.597 115.17C148.822 115.238 149.041 115.273 149.259 115.262C148.483 114.735 148.108 113.744 148.394 112.799Z" fill="#FEA95C"/>
<path d="M147.519 118.23L147.501 118.286L144.478 112.616C143.91 111.551 142.562 111.144 141.5 111.715L140.547 112.228C139.485 112.799 139.076 114.153 139.643 115.218L146.62 128.303L146.21 129.657C146.253 129.669 146.313 129.672 146.355 129.685L158.578 133.381C158.62 133.393 158.676 133.41 158.714 133.437L158.897 132.831C161.017 132.209 162.803 130.563 163.494 128.278L164.944 123.483L147.523 118.216L147.519 118.23Z" fill="#FEA95C"/>
<path d="M153.598 128.55C153.022 128.376 152.69 127.752 152.864 127.174C153.534 124.959 152.282 122.61 150.076 121.943C149.5 121.769 149.167 121.145 149.342 120.567C149.517 119.989 150.139 119.654 150.715 119.828C154.087 120.847 155.995 124.426 154.972 127.811C154.797 128.389 154.174 128.724 153.598 128.55Z" fill="#FDB97E"/>
<path d="M158.865 133.004C159.652 133.242 160.101 134.085 159.861 134.877L156.681 145.396C156.441 146.189 155.601 146.643 154.814 146.405L142.361 142.64C141.574 142.402 141.126 141.558 141.365 140.766L144.546 130.247C144.785 129.454 145.625 129.001 146.413 129.239L158.865 133.004Z" fill="#015A9A"/>
<path d="M153.262 144.363L156.442 133.844C156.682 133.051 156.263 132.217 155.511 131.989L158.929 133.023C159.681 133.25 160.101 134.085 159.861 134.877L156.681 145.396C156.441 146.189 155.63 146.651 154.877 146.424L151.459 145.39C152.211 145.618 153.022 145.155 153.262 144.363Z" fill="#13326F"/>
<path d="M152.374 84.0292C152.374 84.0292 152.062 86.0654 153.327 88.4258C154.591 90.7863 156.459 91.6553 156.459 91.6553C156.459 91.6553 154.423 91.344 152.062 92.6084C149.702 93.8729 148.833 95.7405 148.833 95.7405C148.833 95.7405 149.144 93.7043 147.88 91.3438C146.615 88.9834 144.748 88.1144 144.748 88.1144C144.748 88.1144 146.784 88.4257 149.144 87.1613C151.505 85.8968 152.374 84.0292 152.374 84.0292Z" fill="white"/>
<path d="M173.797 141.02C173.797 141.02 173.605 142.274 174.384 143.726C175.162 145.179 176.311 145.714 176.311 145.714C176.311 145.714 175.058 145.522 173.605 146.301C172.152 147.079 171.618 148.228 171.618 148.228C171.618 148.228 171.809 146.975 171.031 145.522C170.253 144.07 169.103 143.535 169.103 143.535C169.103 143.535 170.356 143.726 171.809 142.948C173.262 142.17 173.797 141.02 173.797 141.02Z" fill="white"/>
</g>
<mask id="mask2" mask-type="alpha" maskUnits="userSpaceOnUse" x="195" y="9" width="85" height="85">
<circle cx="237.734" cy="51.9345" r="42" transform="rotate(15.9697 237.734 51.9345)" fill="#8E40B7"/>
</mask>
<g mask="url(#mask2)">
<circle cx="237.734" cy="51.9345" r="42" transform="rotate(15.9697 237.734 51.9345)" fill="#8E40B7"/>
<path d="M241.481 83.989L217.741 77.1953C216.197 76.7535 215.026 75.3742 214.861 73.7609L213.625 63.4885L252.226 74.5351L245.742 82.5982C244.749 83.8801 243.025 84.4309 241.481 83.989Z" fill="#0CAFE8"/>
<path d="M247.013 73.0434L240.53 81.1066C239.536 82.3884 237.813 82.9392 236.269 82.4973L241.094 83.8782C242.638 84.32 244.362 83.7692 245.355 82.4874L251.838 74.4242L247.013 73.0434Z" fill="#0B90D3"/>
<path d="M216.801 94.3108L234.107 99.2631L239.962 83.5544L220.662 78.0311L216.801 94.3108Z" fill="#0B90D3"/>
<path d="M231.927 98.6392C232.63 98.736 233.333 98.8328 234.036 98.9296L240.202 83.6231L237.307 82.7946L231.927 98.6392Z" fill="#007BC6"/>
<path d="M220.086 82.0427L238.808 87.4003L240.202 83.6231L220.902 78.0997L220.086 82.0427Z" fill="#007BC6"/>
<path d="M223.23 82.5662C222.422 82.335 221.768 82.0024 221.293 81.5544C220.818 81.1064 220.459 80.5458 220.228 79.8973L218.955 81.9462C218.974 82.2429 219.07 82.5616 219.249 82.8831C219.403 83.2184 219.644 83.5371 219.935 83.8285C220.221 84.139 220.575 84.4276 221.004 84.6751C221.427 84.9417 221.91 85.1425 222.448 85.2965C223.179 85.5056 223.866 85.5774 224.553 85.5035C225.22 85.4241 225.838 85.2266 226.383 84.9246C226.927 84.6226 227.41 84.241 227.806 83.7302C228.196 83.2386 228.482 82.6755 228.669 82.0218C228.868 81.3295 228.923 80.7005 228.854 80.14C228.786 79.5795 228.632 79.0987 228.404 78.6591C228.177 78.2194 227.888 77.8457 227.559 77.5433C227.229 77.241 226.878 77.0156 226.534 76.8341L230.024 74.3796L230.591 72.3991L223.111 70.2586L222.33 72.989L226.445 74.1665L222.875 76.6815L222.742 78.7446C222.918 78.7117 223.152 78.6953 223.443 78.6954C223.734 78.6955 224.053 78.7451 224.399 78.8442C225.072 79.0368 225.561 79.3639 225.871 79.8063C226.156 80.2625 226.247 80.746 226.093 81.2844C225.922 81.8805 225.573 82.3007 225.051 82.5257C224.529 82.7508 223.922 82.7642 223.23 82.5662ZM237.204 74.0002C236.435 73.7801 235.712 73.7606 235.022 73.9169C234.333 74.0732 233.701 74.3916 233.121 74.8913C232.522 75.3856 232 76.0474 231.535 76.8714C231.051 77.6899 230.669 78.6622 230.35 79.7774C230.031 80.8927 229.846 81.9008 229.804 82.8458C229.763 83.7909 229.85 84.648 230.078 85.3789C230.306 86.1097 230.668 86.7335 231.184 87.2557C231.681 87.7724 232.33 88.1243 233.137 88.3554C233.887 88.57 234.604 88.6088 235.294 88.4525C235.983 88.2962 236.621 87.9585 237.201 87.4588C237.781 86.9591 238.303 86.2972 238.767 85.4732C239.232 84.6493 239.628 83.7016 239.947 82.5864C240.272 81.452 240.448 80.3998 240.476 79.4301C240.498 78.4796 240.411 77.6224 240.164 76.886C239.917 76.1497 239.549 75.5451 239.047 75.0477C238.539 74.5695 237.934 74.2093 237.204 74.0002ZM236.422 76.7306C237.076 76.9177 237.48 77.4701 237.683 78.3602C237.88 79.2697 237.778 80.4262 237.376 81.8298C236.953 83.3104 236.403 84.3596 235.77 84.9692C235.138 85.5788 234.515 85.7956 233.899 85.6195C233.592 85.5315 233.325 85.372 233.106 85.1219C232.88 84.8911 232.708 84.5503 232.62 84.13C232.507 83.7234 232.466 83.2124 232.511 82.6217C232.555 82.0311 232.69 81.3416 232.91 80.5725C233.13 79.8033 233.38 79.1469 233.661 78.603C233.936 78.0784 234.221 77.661 234.537 77.3562C234.834 77.0459 235.161 76.8482 235.48 76.7522C235.799 76.6562 236.115 76.6426 236.422 76.7306Z" fill="#9DEEFF"/>
</g>
<path d="M255.571 32.1638C254.729 34.011 253.446 36.6715 250.384 38.6143C251.973 30.5077 248.972 19.1039 243.528 14.4138C239.057 22.7397 226.742 27.4637 221.995 37.4855C217.248 47.5072 221.641 59.5183 231.691 64.1691C241.712 68.9163 253.723 64.5231 258.374 54.4737C261.81 47.209 260.257 36.9502 255.571 32.1638Z" fill="#FFDE39"/>
<path d="M230.024 60.8731C225.448 56.4315 225.355 49.0963 229.824 44.4242C232.003 41.9157 234.818 37.9184 235.853 35.3957C238.789 36.4448 243.007 39.9487 246.149 44.2932C249.29 48.6377 250.818 56.07 246.349 60.7422C242.003 65.3455 234.572 65.4113 230.024 60.8731Z" fill="#FEC632"/>
<path d="M241.882 58.8375C240.681 61.9392 236.889 63.1509 233.842 61.7571C230.796 60.3632 229.267 56.5847 230.923 53.7175C233.434 49.3203 240.246 48.1374 240.246 48.1374C240.246 48.1374 243.317 55.2808 241.882 58.8375Z" fill="#F9A74E"/>
<path d="M252.434 74.5947L213.832 63.548L215.489 57.7578C216.097 55.6348 218.331 54.3948 220.454 55.0024L251.335 63.8397C253.458 64.4472 254.698 66.6814 254.091 68.8045L252.434 74.5947Z" fill="white"/>
<path opacity="0.2" d="M251.223 63.8075L246.398 62.4267C248.521 63.0342 249.761 65.2684 249.153 67.3915L247.496 73.1817L252.321 74.5625L253.978 68.7723C254.586 66.6492 253.346 64.4151 251.223 63.8075Z" fill="#382673"/>
<path d="M239.669 30.6611C240.735 30.9661 241.846 30.3493 242.151 29.2833C242.456 28.2174 241.84 27.106 240.774 26.8009C239.708 26.4959 238.596 27.1127 238.291 28.1787C237.986 29.2446 238.603 30.356 239.669 30.6611Z" fill="#F9A74E"/>
<path d="M254.919 24.6237C255.985 24.9287 257.096 24.3119 257.401 23.2459C257.706 22.18 257.089 21.0686 256.023 20.7635C254.957 20.4585 253.846 21.0753 253.541 22.1413C253.236 23.2072 253.853 24.3186 254.919 24.6237Z" fill="#FEC632"/>
<path d="M218.724 22.5712C218.724 22.5712 218.465 24.4543 219.664 26.6149C220.863 28.7755 222.598 29.5517 222.598 29.5517C222.598 29.5517 220.715 29.2924 218.555 30.4916C216.394 31.6907 215.618 33.4259 215.618 33.4259C215.618 33.4259 215.877 31.5428 214.678 29.3822C213.479 27.2215 211.744 26.4454 211.744 26.4454C211.744 26.4454 213.627 26.7046 215.787 25.5055C217.948 24.3063 218.724 22.5712 218.724 22.5712Z" fill="white"/>
<path d="M244.767 64.3487C244.767 64.3487 244.575 65.7422 245.463 67.341C246.35 68.9399 247.634 69.5142 247.634 69.5142C247.634 69.5142 246.241 69.3224 244.642 70.2097C243.043 71.0971 242.469 72.3811 242.469 72.3811C242.469 72.3811 242.661 70.9877 241.773 69.3888C240.886 67.7899 239.602 67.2156 239.602 67.2156C239.602 67.2156 240.995 67.4074 242.594 66.5201C244.193 65.6327 244.767 64.3487 244.767 64.3487Z" fill="white"/>
<path d="M207.245 39.4764C207.245 39.4764 203.179 54.2894 212.229 72.3424" stroke="#49B125" stroke-width="1.6" stroke-miterlimit="10" stroke-linecap="round" stroke-linejoin="round"/>
<path d="M213.613 59.3719C213.572 59.4568 215.162 62.2256 214.593 64.2572C213.982 66.3737 211.034 67.0374 210.95 66.996C210.908 67.0809 208.763 63.727 209.627 61.5235C210.533 59.4462 213.698 59.4133 213.613 59.3719Z" fill="#36CC29"/>
<path d="M209.943 67.5552C209.943 67.5552 207.644 69.6892 205.395 68.4887C203.102 67.162 202.338 62.6965 202.338 62.6965C202.338 62.6965 204.937 61.0236 206.978 62.4373C208.933 63.8097 209.858 67.5138 209.943 67.5552Z" fill="#36CC29"/>
<path d="M212.36 52.4637C212.319 52.5485 213.363 55.5763 212.328 57.4861C211.293 59.396 208.213 59.4702 208.213 59.4702C208.171 59.555 206.698 55.8987 208.027 53.817C209.274 51.905 212.319 52.5485 212.36 52.4637Z" fill="#36CC29"/>
<path d="M207.077 59.862C207.077 59.862 204.393 61.4935 202.477 59.8254C200.476 58.1159 200.638 53.4719 200.638 53.4719C200.638 53.4719 203.581 52.3863 205.245 54.1415C206.783 55.9402 206.992 59.8206 207.077 59.862Z" fill="#36CC29"/>
<path d="M212.455 45.373C212.414 45.4578 212.742 48.6618 211.409 50.3215C210.035 52.0661 206.948 51.5074 206.989 51.4225C206.948 51.5074 206.274 47.5052 207.944 45.7997C209.532 44.2639 212.414 45.4578 212.455 45.373Z" fill="#36CC29"/>
<path d="M209.098 35.0261C209.098 35.0261 210.691 38.0059 210.125 40.4595C209.475 42.8718 206.708 44.6731 206.708 44.6731C206.708 44.6731 204.403 42.0805 205.09 39.1614C205.735 36.3271 209.098 35.0261 209.098 35.0261Z" fill="#36CC29"/>
<path d="M205.767 51.5618C205.767 51.5618 202.824 52.6474 201.284 50.6377C199.701 48.5019 200.751 43.9753 200.751 43.9753C200.751 43.9753 203.826 43.4791 205.114 45.5758C206.276 47.7161 205.767 51.5618 205.767 51.5618Z" fill="#36CC29"/>
<path d="M270.57 57.5899C270.57 57.5899 266.184 72.3116 248.954 82.8438" stroke="#49B125" stroke-width="1.6" stroke-miterlimit="10" stroke-linecap="round" stroke-linejoin="round"/>
<path d="M262.356 79.8812C262.45 79.891 259.346 83.2666 256.698 83.1795C254.145 83.1022 253.333 79.9812 253.333 79.9812C253.427 79.991 256.171 77.3368 258.556 77.2068C261.036 77.0866 262.45 79.891 262.356 79.8812Z" fill="#36CC29"/>
<path d="M252.774 78.9739C252.774 78.9739 250.624 76.8516 251.131 74.7225C251.723 72.697 254.547 71.0948 254.547 71.0948C254.547 71.0948 257.121 72.7872 256.782 75.1236C256.349 77.4502 252.764 79.0678 252.774 78.9739Z" fill="#36CC29"/>
<path d="M268.763 73.0557C268.857 73.0655 266.454 76.9888 263.841 77.4747C261.333 77.8765 259.928 74.9781 259.918 75.072C260.012 75.0818 262.148 71.8897 264.489 71.2805C266.84 70.5776 268.772 72.9619 268.763 73.0557Z" fill="#36CC29"/>
<path d="M259.162 74.1389C259.162 74.1389 256.587 72.4466 256.719 70.2782C256.851 68.1098 259.339 66.0929 259.349 65.9991C259.349 65.9991 262.264 67.1578 262.31 69.4396C262.346 71.8153 259.162 74.1389 259.162 74.1389Z" fill="#36CC29"/>
<path d="M273.597 64.9277C273.691 64.9375 272.094 69.3245 269.62 70.2993C267.25 71.1899 265.327 68.7118 265.327 68.7118C265.421 68.7216 266.93 65.1792 269.048 63.9776C271.26 62.7857 273.607 64.8338 273.597 64.9277Z" fill="#36CC29"/>
<path d="M271.446 52.8431C271.446 52.8431 273.517 55.7163 272.65 58.5668C271.689 61.4074 268.36 62.3877 268.36 62.3877C268.36 62.3877 266.965 59.3955 267.69 57.0045C268.508 54.6232 271.436 52.937 271.446 52.8431Z" fill="#36CC29"/>
<path d="M264.363 67.9469C264.363 67.9469 261.449 66.7882 261.195 64.6744C260.942 62.5606 262.926 59.9218 262.926 59.9218C262.926 59.9218 266.003 60.4333 266.518 62.7643C267.127 65.105 264.354 68.0407 264.363 67.9469Z" fill="#36CC29"/>
</svg>
