<svg width="148" height="44" viewBox="0 0 148 44" fill="none" xmlns="http://www.w3.org/2000/svg">
<path d="M0.650574 37.6469C0.650574 33.804 3.56755 31.2677 8.05239 31.2677C9.83904 31.2677 11.9903 31.8057 12.6466 32.0363C13.0477 32.19 13.4488 32.0363 13.6676 31.6905L13.9957 31.8442L12.4643 35.2643C11.3705 34.6879 9.5838 34.3805 8.19824 34.3805C5.71881 34.4189 4.15094 35.5333 4.15094 37.6085C4.15094 39.7221 6.01051 41.0671 8.85456 41.0671C10.386 41.0671 11.9174 40.6828 12.5372 40.0679L13.8499 42.7964C12.0268 43.6418 10.386 43.9492 8.01593 43.9492C3.56755 43.9877 0.650574 41.4898 0.650574 37.6469Z" fill="white"/>
<path d="M27.8874 31.421V31.8053C27.5228 31.8053 27.1217 32.1512 27.1217 32.5739V43.8335H23.7672V39.4526C22.9286 39.7216 21.9806 39.8753 20.9596 39.8753C17.7509 39.8753 15.8184 37.8386 15.8184 34.4953V32.5739C15.8184 32.1896 15.4903 31.8053 15.0892 31.8053V31.421H19.173V34.1495C19.173 36.0325 19.9387 37.0316 21.3607 37.0316C22.1993 37.0316 22.965 36.8779 23.7672 36.5705V31.421H27.8874Z" fill="white"/>
<path d="M44.4049 43.4498V43.8341H39.8836L38.972 41.3747H33.7579L32.9193 43.8341H29.0908V43.4498C29.7106 43.373 30.1117 42.9503 30.4399 42.1433L33.9038 32.5361C34.0496 32.0749 33.9403 31.8444 33.5756 31.8444V31.4601H38.8262L43.2016 42.7197C43.4204 43.1808 43.785 43.4498 44.4049 43.4498ZM38.1334 39.0305L36.3103 33.9579L34.5966 39.0305H38.1334Z" fill="white"/>
<path d="M44.0402 37.6467C44.0402 33.8038 46.9571 31.3059 51.442 31.3059C53.2286 31.3059 55.3799 31.8439 56.0362 32.0745C56.4373 32.2282 56.8384 32.0745 57.0571 31.7286L57.3853 31.8824L55.8539 35.3025C54.76 34.7261 52.9734 34.4187 51.5878 34.4187C49.1084 34.4571 47.5405 35.5715 47.5405 37.6467C47.5405 39.7603 49.4001 41.1053 52.2441 41.1053C53.7756 41.1053 55.307 40.721 55.9268 40.1061L57.2395 42.8346C55.4164 43.68 53.7756 43.9874 51.4055 43.9874C46.9571 43.9874 44.0402 41.4896 44.0402 37.6467Z" fill="white"/>
<path d="M71.0954 35.1102H70.7308C70.7308 34.5722 70.4755 34.3032 70.0015 34.3032H66.6105V42.6806C66.6105 43.1418 66.8658 43.4492 67.3398 43.4492V43.8335H63.256V34.3032H59.865C59.391 34.3416 59.1358 34.649 59.1358 35.1102H58.7712V31.421H71.1683V35.1102H71.0954Z" fill="white"/>
<path d="M73.2097 32.6123C73.2097 32.1896 72.8815 31.8437 72.444 31.8437V31.421H76.5642V35.8403H80.5751C83.091 35.8403 84.8411 37.5312 84.8411 39.8753C84.8411 42.2195 83.0545 43.8335 80.5751 43.8335H73.2097V32.6123ZM79.9552 41.2204C81.0855 41.2204 81.7783 40.7208 81.7783 39.9138C81.7783 39.0683 81.0855 38.5303 79.9552 38.5303H76.5642V41.2588H79.9552V41.2204Z" fill="white"/>
<path d="M98.2956 40.1828V43.8719H87.1017V32.6123C87.1017 32.1512 86.81 31.8437 86.336 31.8437V31.421H98.0404V34.9949H97.6757C97.6757 34.5337 97.3476 34.1879 96.9465 34.1879H90.4562V36.1478H95.5609V38.7609H90.4562V40.9514H97.2382C97.6757 40.9129 97.931 40.6055 97.931 40.1444H98.2956V40.1828Z" fill="white"/>
<path d="M116.381 31.8437C115.907 31.8437 115.652 32.1127 115.652 32.6123V43.8719H112.297V36.0709L108.177 42.9497L104.02 36.1093V43.8719H100.994V32.6123C100.994 32.1512 100.739 31.8437 100.265 31.8437V31.421H104.895L108.286 36.9932L111.75 31.421H116.418V31.8437H116.381Z" fill="white"/>
<path d="M14.8354 22.2374C14.8354 24.7737 12.1007 26.0034 8.30864 26.0034C6.19383 26.0034 3.78733 25.3117 1.8913 23.5056L3.93318 21.3151C5.0635 22.6217 6.66784 23.0444 8.30864 23.0444C9.9859 23.0444 11.2256 22.6601 11.2256 21.8531C11.2256 21.123 10.6422 20.8924 8.60033 20.8924H5.90213V18.2793H8.60033C10.387 18.2793 11.0433 18.0487 11.0433 17.4338C11.0433 16.5884 9.87651 16.281 8.16279 16.281C6.59492 16.281 5.24582 16.6652 4.11549 17.6644L1.92776 14.8207L2.21946 14.5901C2.58408 14.9744 2.76639 15.0512 3.27686 14.6669C4.51657 13.8215 6.23029 13.2835 8.23571 13.2835C11.5173 13.2835 14.3249 14.6285 14.3249 16.7037C14.3249 17.8181 13.4863 18.8941 12.3195 19.3553C13.8144 19.778 14.8354 20.8924 14.8354 22.2374Z" fill="white"/>
<path d="M30.2946 25.465V25.8493H25.8097L24.8982 23.3898H19.6841L18.8454 25.8493H15.0169V25.465C15.6368 25.3881 16.0378 24.9654 16.366 24.1584L19.8299 14.5512C19.9758 14.09 19.8664 13.8595 19.5018 13.8595V13.4752H24.7523L29.1278 24.7348C29.3465 25.196 29.7112 25.465 30.2946 25.465ZM24.0595 21.0457L22.2364 15.9731L20.5227 21.0457H24.0595V21.0457Z" fill="white"/>
<path d="M31.8261 14.6281C31.8261 14.1285 31.5709 13.8595 31.0604 13.8595V13.4752H39.1915C41.7074 13.4752 43.4576 15.0892 43.4576 17.4718C43.4576 19.8159 41.6709 21.4684 39.1915 21.4684H35.1442V25.8877H31.7897V14.6281H31.8261ZM38.5716 18.8168C39.8113 18.8168 40.3947 18.3941 40.3947 17.3949C40.3947 16.5111 39.8478 16.0883 38.5716 16.0883H35.1807V18.8168H38.5716Z" fill="white"/>
<path d="M58.3341 13.4364V13.8591C57.8601 13.8591 57.5684 14.1281 57.5684 14.6276V25.8873H54.2139V21.3911H52.2449L49.0727 25.8873H44.6973V25.503C45.1348 25.503 45.5724 25.234 45.9005 24.7344L48.5622 21.0068C46.8485 20.392 45.7911 19.0854 45.7911 17.4329C45.7911 15.1657 47.7236 13.5132 50.4583 13.5132H58.3341V13.4364ZM54.2139 16.0879H51.1511C49.9478 16.0879 49.2186 16.5491 49.2186 17.5098C49.2186 18.3552 49.7655 18.8548 50.9323 18.8548H54.2139V16.0879V16.0879Z" fill="white"/>
<path d="M79.3359 25.4646V25.8489H75.1792L71.1319 20.1614V24.5038C71.1319 25.0803 71.3871 25.3877 71.8611 25.3877V25.8104H67.0117V25.3877C67.4857 25.3877 67.7409 25.0419 67.7409 24.5038V20.2767L63.7665 25.8489H59.6098V25.4646C60.0474 25.4646 60.4849 25.1956 60.8131 24.696L64.6416 19.2775L61.4694 14.8967C60.9589 14.2049 60.3755 13.8591 59.7192 13.8591V13.4364H63.8759L67.7409 18.778V14.7814C67.7409 14.2049 67.4857 13.8975 67.0117 13.8975V13.4748H71.8611V13.8975C71.3871 13.8975 71.1319 14.2434 71.1319 14.7814V18.8932L75.0698 13.4748H79.2265V13.8975C78.5702 13.8975 77.9868 14.2434 77.4763 14.9351L74.3041 19.316L78.1326 24.7344C78.4608 25.1956 78.8983 25.4646 79.3359 25.4646Z" fill="white"/>
<path d="M94.9782 25.465V25.8493H90.4569L89.5453 23.3898H84.3312L83.4926 25.8493H79.6276V25.465C80.2475 25.3881 80.6486 24.9654 80.9767 24.1584L84.4406 14.5512C84.5865 14.09 84.4771 13.8595 84.1125 13.8595V13.4752H89.363L93.7385 24.7348C93.9937 25.196 94.3583 25.465 94.9782 25.465ZM88.7067 21.0457L86.8836 15.9731L85.1699 21.0457H88.7067V21.0457Z" fill="white"/>
<path d="M107.631 22.1981V25.8873H96.4369V14.6276C96.4369 14.1665 96.1452 13.8591 95.6711 13.8591V13.4364H107.376V17.0487H107.011C107.011 16.5875 106.683 16.2417 106.282 16.2417H99.7914V18.2015H104.896V20.8147H99.7914V23.0051H106.573C107.011 22.9667 107.266 22.6593 107.266 22.1981H107.631Z" fill="white"/>
<path d="M125.716 13.8591C125.242 13.8591 124.987 14.1281 124.987 14.6276V25.8873H121.632V18.0862L117.512 24.965L113.319 18.1247V25.8873H110.292V14.6276C110.292 14.1665 110.037 13.8591 109.563 13.8591V13.4364H114.194L117.585 19.0085L121.049 13.4364H125.716V13.8591Z" fill="white"/>
<path d="M138.951 8.82533H147.192L146.025 6.75017H140.082L138.951 8.82533Z" fill="white"/>
<path d="M142.16 9.67056L143.291 11.7841H146.025L147.192 9.67056H142.16Z" fill="white"/>
<path d="M137.566 9.67056H129.326L130.492 11.7841H136.436L137.566 9.67056Z" fill="white"/>
<path d="M133.227 6.75017H130.492L129.326 8.82533H134.357L133.227 6.75017Z" fill="white"/>
<path d="M142.817 5.90475L144.202 3.40688L143.072 1.33173L140.556 5.90475H142.817Z" fill="white"/>
<path d="M138.259 10.0934L134.139 17.6254H136.436L139.389 12.1685L138.259 10.0934Z" fill="white"/>
<path d="M133.701 12.5912L132.315 15.089L133.446 17.2026L135.962 12.5912H133.701Z" fill="white"/>
<path d="M137.566 8.82534L133.446 1.33173L132.315 3.40688L135.269 8.82534H137.566Z" fill="white"/>
<path d="M138.733 15.0891L140.082 17.6254H142.379L139.863 13.0139L138.733 15.0891Z" fill="white"/>
<path d="M138.951 9.67056L143.072 17.2026L144.202 15.089L141.249 9.67056H138.951Z" fill="white"/>
<path d="M142.379 0.908951H140.082L138.259 4.25226L136.436 0.908951H134.139L138.259 8.44099L142.379 0.908951Z" fill="white"/>
</svg>
