<svg width="28" height="28" viewBox="0 0 28 28" fill="none" xmlns="http://www.w3.org/2000/svg">
<circle cx="13.9299" cy="13.9874" r="12.8581" fill="#FFA800" stroke="white" stroke-width="1.71616"/>
<path d="M20.771 11.5544C20.6049 11.7213 20.3865 11.8042 20.1697 11.8042C19.9523 11.8042 19.7338 11.7214 19.5676 11.5543C19.1818 11.1687 18.5534 11.1687 18.1676 11.5545C17.8356 11.8873 17.2963 11.8872 16.9644 11.5542L20.771 11.5544ZM20.771 11.5544C21.1037 11.2224 21.1036 10.6832 20.7707 10.3513C19.7211 9.30178 18.0144 9.30179 16.9647 10.3513L20.771 11.5544Z" fill="white" stroke="white" stroke-width="0.399757"/>
<path d="M6.12991 16.7736L6.12991 16.7736L6.12968 16.7738C5.79773 17.1057 5.79773 17.6449 6.12968 17.9768C8.2805 20.1276 11.1054 21.2025 13.9293 21.2025C16.7533 21.2025 19.5781 20.1276 21.7281 17.9768C22.0601 17.6448 22.0601 17.1057 21.7281 16.7738C21.3962 16.4418 20.857 16.4418 20.5251 16.7738C16.8883 20.4105 10.9703 20.4105 7.33353 16.7738L7.3333 16.7736C7.00059 16.4419 6.46262 16.4419 6.12991 16.7736Z" fill="white" stroke="white" stroke-width="0.399757"/>
<path d="M10.7529 11.4134L10.8942 11.5547C11.2262 11.2228 11.2262 10.6836 10.8942 10.3517L10.8941 10.3516C10.3855 9.8439 9.70902 9.5632 8.99026 9.5632C8.27154 9.5632 7.59494 9.84389 7.08714 10.3517C6.75519 10.6836 6.75519 11.2228 7.08714 11.5547C7.41978 11.8874 7.95827 11.8877 8.2904 11.5545L8.14884 11.4134L8.28992 11.555C8.47801 11.3676 8.72599 11.265 8.99026 11.265C9.25549 11.265 9.50328 11.3676 9.69036 11.5547C9.85694 11.7213 10.0744 11.8045 10.2923 11.8045C10.5098 11.8045 10.7284 11.7215 10.8947 11.5543L10.7529 11.4134ZM10.7529 11.4134C10.6259 11.5411 10.4591 11.6046 10.2923 11.6046C10.1255 11.6046 9.95945 11.5411 9.83169 11.4134C9.60709 11.1888 9.30844 11.0651 8.99026 11.0651C8.6729 11.0651 8.37425 11.1888 8.14884 11.4134C7.89494 11.6681 7.48318 11.6681 7.22848 11.4134C6.97458 11.1595 6.97458 10.7469 7.22848 10.493C7.69883 10.0227 8.32461 9.76308 8.99026 9.76308C9.65592 9.76308 10.2817 10.0227 10.7529 10.493C11.0068 10.7469 11.0068 11.1595 10.7529 11.4134Z" fill="white" stroke="white" stroke-width="0.399757"/>
</svg>
